<svg width="3580" height="3580" viewBox="0 0 3580 3580" fill="none" xmlns="http://www.w3.org/2000/svg">
<path d="M507.51 2181.98C499.269 2181.98 493.382 2178.64 489.85 2171.97C486.318 2165.3 420.584 2054.83 416.268 2047.76C411.951 2040.7 411.166 2033.83 413.913 2027.16C416.131 2021.77 532.596 1747.98 577.361 1642.75C579.413 1637.92 586.627 1640.31 585.55 1645.44C584.48 1650.54 576.971 1649.76 576.971 1644.55V1608.19C576.971 1600.96 585.705 1597.34 590.813 1602.45L599.046 1610.69C607.192 1618.83 601.482 1632.76 589.962 1632.76C539.322 1632.76 444.048 1632.76 436.871 1632.76C427.06 1632.76 422.154 1627.85 422.154 1618.04C422.154 1608.23 422.154 1421.82 422.154 1412.01C422.154 1402.2 427.06 1397.3 436.871 1397.3C446.682 1397.3 754.55 1397.3 762.399 1397.3C770.248 1397.3 776.134 1400.24 780.059 1406.13C783.983 1412.01 859.135 1518.56 864.237 1524.45C869.339 1530.33 870.123 1537.2 866.592 1545.05C863.735 1551.4 745.383 1828.52 700.207 1934.31C698.143 1939.14 690.902 1936.77 691.981 1931.63C693.055 1926.51 700.59 1927.29 700.59 1932.52V1970.62C700.59 1978.02 691.645 1981.72 686.414 1976.49L678.515 1968.59C670.369 1960.44 676.075 1946.52 687.596 1946.52C739.227 1946.52 837.6 1946.52 844.811 1946.52C854.622 1946.52 859.528 1951.42 859.528 1961.23C859.528 1971.04 859.528 2157.45 859.528 2167.26C859.528 2177.07 854.622 2181.98 844.811 2181.98C835 2181.98 515.751 2181.98 507.51 2181.98Z" fill="#FF9038"/>
<path d="M926.009 2181.98C916.198 2181.98 911.293 2177.07 911.293 2167.26V1412.01C911.293 1402.2 916.198 1397.3 926.009 1397.3H1141.46C1151.27 1397.3 1156.17 1402.2 1156.17 1412.01V2167.26C1156.17 2177.07 1151.27 2181.98 1141.46 2181.98H926.009Z" fill="#FF9038"/>
<path d="M1220.34 2181.98C1210.53 2181.98 1205.62 2177.07 1205.62 2167.26V1412.01C1205.62 1402.2 1210.53 1397.3 1220.34 1397.3H1594.14C1603.16 1397.3 1611.01 1400.44 1617.68 1406.72L1735.41 1524.45C1741.69 1531.12 1744.83 1538.97 1744.83 1547.99V2167.26C1744.83 2177.07 1739.93 2181.98 1730.12 2181.98H1514.67C1504.86 2181.98 1499.95 2177.07 1499.95 2167.26V1657.48C1499.95 1643.83 1488.88 1632.76 1475.23 1632.76C1461.57 1632.76 1450.5 1643.83 1450.5 1657.48V2167.26C1450.5 2177.07 1445.6 2181.98 1435.79 2181.98H1220.34Z" fill="#FF9038"/>
<path d="M1882.58 2181.98C1874.34 2181.98 1868.45 2178.64 1864.92 2171.97L1791.34 2047.76C1787.02 2040.7 1786.24 2033.83 1788.98 2027.16L1952.39 1642.87C1954.44 1638.05 1961.69 1640.33 1960.62 1645.46C1959.55 1650.55 1952.04 1649.77 1952.04 1644.57V1608.19C1952.04 1600.96 1960.78 1597.34 1965.88 1602.45L1974.12 1610.69C1982.26 1618.83 1976.49 1632.76 1964.97 1632.76H1811.94C1802.13 1632.76 1797.22 1627.85 1797.22 1618.04V1412.01C1797.22 1402.2 1802.13 1397.3 1811.94 1397.3H2137.47C2145.32 1397.3 2151.2 1400.24 2155.13 1406.13L2239.31 1524.45C2244.41 1530.33 2245.19 1537.2 2241.66 1545.05L2075.31 1934.27C2073.24 1939.11 2065.96 1936.81 2067.04 1931.67C2068.12 1926.54 2075.66 1927.33 2075.66 1932.56V1970.62C2075.66 1978.02 2066.72 1981.72 2061.48 1976.49L2053.58 1968.59C2045.44 1960.44 2051.21 1946.52 2062.73 1946.52H2219.88C2229.69 1946.52 2234.6 1951.42 2234.6 1961.23V2167.26C2234.6 2177.07 2229.69 2181.98 2219.88 2181.98H1882.58Z" fill="#FF9038"/>
<path d="M2301.08 2181.98C2291.27 2181.98 2286.36 2177.07 2286.36 2167.26V1412.01C2286.36 1402.2 2291.27 1397.3 2301.08 1397.3H2516.53C2526.34 1397.3 2531.24 1402.2 2531.24 1412.01V1847.03C2531.24 1901.98 2575.78 1946.52 2630.73 1946.52C2640.54 1946.52 2645.44 1951.42 2645.44 1961.23V2167.26C2645.44 2177.07 2640.54 2181.98 2630.73 2181.98H2301.08Z" fill="#FF9038"/>
<path d="M2790.47 2181.98C2780.66 2181.98 2775.75 2177.07 2775.75 2167.26V2049.36C2775.75 1971.09 2744.57 1896.04 2689.11 1840.81L2634.47 1786.4C2634.38 1786.3 2634.29 1786.19 2634.2 1786.09C2630.1 1781.33 2628.58 1775.02 2628.58 1768.74V1412.01C2628.58 1402.2 2633.49 1397.3 2643.3 1397.3H2859.34C2869.15 1397.3 2874.06 1402.2 2874.06 1412.01V1674.85C2874.06 1688.34 2884.99 1699.28 2898.48 1699.28C2911.98 1699.28 2922.91 1688.34 2922.91 1674.85V1412.01C2922.91 1402.2 2927.82 1397.3 2937.63 1397.3H3153.67C3163.48 1397.3 3168.38 1402.2 3168.38 1412.01V1768.74C3168.38 1772.27 3168.19 1775.41 3167.8 1778.16C3167.4 1780.51 3165.64 1783.26 3162.5 1786.4L3108.02 1840.88C3052.82 1896.08 3021.81 1970.94 3021.81 2049V2167.26C3021.81 2177.07 3016.9 2181.98 3007.09 2181.98H2790.47Z" fill="#FF9038"/>
<path d="M2103.97 1946.52H2091.48L2095.21 1942.77L2103.97 1946.52ZM2095.21 1942.77L2091.48 1946.52H2075.68L2084.15 1938.04L2095.21 1942.77ZM2084.15 1938.04L2075.68 1946.52V1934.42L2084.15 1938.04ZM728.802 1946.52H716.405L720.113 1942.81L728.802 1946.52ZM576.987 1632.76V1643.64L567.996 1641.75L576.987 1632.76ZM2516.55 1309V1397.3H2301.1V1309H2516.55ZM2137.48 1309V1397.3H1811.96V1309H2137.48ZM762.414 1309V1397.3H436.887V1309H762.414ZM2922.93 1674.85C2922.93 1688.34 2911.99 1699.28 2898.5 1699.28L2897.25 1699.25C2884.75 1698.62 2874.74 1688.6 2874.1 1676.11L2874.07 1674.85V1412.02C2874.07 1402.2 2869.17 1397.3 2859.36 1397.3H2643.32V1309H2859.36C2869.75 1309 2883.79 1310.48 2898.5 1316.17C2913.22 1310.48 2927.26 1309 2937.65 1309H3153.69V1397.3H2937.65C2927.84 1397.3 2922.93 1402.2 2922.93 1412.02V1674.85ZM1789 2027.16C1786.25 2033.84 1787.04 2040.7 1791.35 2047.77L1864.94 2171.97C1868.25 2178.23 1873.63 2181.55 1881.08 2181.94L1882.6 2181.98H2219.9C2229.71 2181.98 2234.61 2177.07 2234.61 2167.26V1961.23C2234.61 1951.42 2229.71 1946.52 2219.9 1946.52H2103.97L2075.68 1934.42V1933.45L2241.68 1545.05C2245.21 1537.2 2244.42 1530.34 2239.32 1524.45L2155.14 1406.13C2151.22 1400.24 2145.33 1397.3 2137.48 1397.3V1309C2167.23 1309 2198.3 1320.54 2220.51 1346.45C2222.67 1343.77 2225.04 1341.13 2227.62 1338.54C2252.47 1313.69 2282.58 1309 2301.1 1309V1397.3L2300.19 1397.31C2290.98 1397.61 2286.38 1402.51 2286.38 1412.02V2167.26C2286.38 2177.07 2291.28 2181.98 2301.1 2181.98H2630.74L2631.65 2181.97C2640.56 2181.68 2645.16 2177.08 2645.45 2168.17L2645.46 2167.26V1961.23C2645.46 1951.73 2640.86 1946.83 2631.65 1946.53L2630.74 1946.52C2576.66 1946.52 2532.66 1903.36 2531.29 1849.6L2531.26 1847.03V1412.02C2531.26 1402.51 2526.66 1397.61 2517.45 1397.31L2516.55 1397.3V1309C2532.62 1309 2557.41 1312.54 2579.93 1329.72C2602.45 1312.53 2627.25 1309 2643.32 1309V1397.3C2633.51 1397.3 2628.6 1402.2 2628.6 1412.02V1768.74L2628.62 1769.92C2628.8 1775.81 2630.37 1781.63 2634.22 1786.09C2634.31 1786.19 2634.4 1786.3 2634.49 1786.4L2689.12 1840.81C2744.59 1896.04 2775.77 1971.09 2775.77 2049.37V2167.26C2775.77 2177.07 2780.67 2181.98 2790.48 2181.98H3007.11L3008.01 2181.97C3016.92 2181.68 3021.52 2177.08 3021.81 2168.17L3021.83 2167.26V2049.01C3021.83 1972.16 3051.87 1898.42 3105.46 1843.49L3108.03 1840.89L3162.52 1786.4C3165.46 1783.46 3167.19 1780.86 3167.72 1778.61L3167.81 1778.16C3168.11 1776.1 3168.29 1773.82 3168.36 1771.32L3168.4 1768.74V1412.02C3168.4 1402.51 3163.8 1397.61 3154.59 1397.31L3153.69 1397.3V1309C3172.2 1309 3202.31 1313.69 3227.16 1338.54C3252.01 1363.39 3256.7 1393.5 3256.7 1412.02V1768.74C3256.7 1775.38 3256.34 1782.83 3255.22 1790.65L3255.08 1791.67L3254.91 1792.68C3249.83 1823.13 3231.46 1842.33 3224.95 1848.84L3170.47 1903.32C3131.83 1941.96 3110.13 1994.36 3110.13 2049.01V2167.26C3110.13 2185.78 3105.44 2215.89 3080.58 2240.74C3055.73 2265.59 3025.63 2270.28 3007.11 2270.28H2790.48C2771.97 2270.28 2741.86 2265.59 2717.01 2240.74C2714.71 2238.44 2712.58 2236.09 2710.61 2233.71C2708.65 2236.09 2706.52 2238.44 2704.22 2240.74C2679.37 2265.59 2649.26 2270.28 2630.74 2270.28H2301.1C2290.36 2270.28 2275.74 2268.7 2260.49 2262.53C2245.25 2268.69 2230.63 2270.28 2219.9 2270.28H1882.6C1866.53 2270.28 1847.3 2266.97 1828.47 2256.3C1819.67 2251.32 1812.05 2245.33 1805.54 2238.74C1804.91 2239.41 1804.27 2240.08 1803.61 2240.74C1778.76 2265.59 1748.65 2270.28 1730.13 2270.28H1514.68C1504.22 2270.28 1490.06 2268.78 1475.24 2263C1460.42 2268.78 1446.27 2270.28 1435.8 2270.28H1220.36C1209.89 2270.28 1195.74 2268.78 1180.91 2263C1166.09 2268.78 1151.94 2270.28 1141.48 2270.28H926.026C915.292 2270.28 900.668 2268.69 885.426 2262.53C870.185 2268.69 855.56 2270.28 844.827 2270.28H507.526C491.456 2270.28 472.226 2266.97 453.397 2256.3C434.144 2245.39 420.534 2229.73 411.829 2213.29C412.188 2213.96 409.015 2208.46 401.43 2195.6C394.766 2184.3 386.131 2169.73 377.441 2155.09C368.757 2140.46 360.05 2125.83 353.251 2114.41C349.849 2108.7 346.937 2103.82 344.748 2100.16C343.653 2098.33 342.754 2096.83 342.072 2095.69C341.731 2095.12 341.456 2094.67 341.248 2094.32C341.034 2093.97 340.946 2093.82 340.94 2093.81C324.417 2066.77 317.12 2030.36 332.28 1993.54L338.206 1979.55C355.266 1939.36 405.748 1820.66 448.114 1721.06H436.887C418.371 1721.06 388.264 1716.37 363.411 1691.52C338.56 1666.67 333.872 1636.56 333.872 1618.05V1412.02C333.872 1393.5 338.56 1363.39 363.411 1338.54C388.264 1313.69 418.371 1309 436.887 1309V1397.3L435.982 1397.31C426.774 1397.61 422.171 1402.51 422.171 1412.02V1618.05C422.171 1627.55 426.774 1632.45 435.982 1632.75L436.887 1632.76H576.987L567.996 1641.75L576.987 1643.64V1643.66C531.943 1749.55 416.149 2021.77 413.93 2027.16C411.183 2033.84 411.967 2040.7 416.284 2047.77C420.603 2054.83 486.335 2165.3 489.867 2171.97C493.178 2178.23 498.558 2181.55 506.009 2181.94L507.526 2181.98H844.827C854.638 2181.98 859.543 2177.07 859.543 2167.26V1961.23C859.543 1951.42 854.637 1946.52 844.827 1946.52H728.802L720.113 1942.81L716.405 1946.52H700.605V1933.42C746.062 1826.97 863.758 1551.39 866.608 1545.05C870.14 1537.2 869.355 1530.34 864.254 1524.45C859.152 1518.56 783.999 1412.02 780.074 1406.13C776.15 1400.24 770.263 1397.3 762.414 1397.3V1309C792.162 1309 823.23 1320.54 845.439 1346.45C847.604 1343.77 849.966 1341.13 852.55 1338.54C877.402 1313.69 907.51 1309 926.026 1309V1397.3L925.121 1397.31C915.913 1397.61 911.309 1402.51 911.309 1412.02V2167.26C911.309 2177.07 916.215 2181.98 926.026 2181.98H1141.48C1150.98 2181.98 1155.88 2177.38 1156.18 2168.17L1156.19 2167.26V1412.02C1156.19 1402.2 1151.29 1397.3 1141.48 1397.3H926.026V1309H1141.48C1151.94 1309 1166.09 1310.5 1180.91 1316.28C1195.74 1310.5 1209.89 1309 1220.36 1309H1594.15V1397.3H1220.36C1210.54 1397.3 1205.64 1402.2 1205.64 1412.02V2167.26C1205.64 2177.07 1210.54 2181.98 1220.36 2181.98H1435.8C1445.31 2181.98 1450.21 2177.38 1450.51 2168.17L1450.52 2167.26V1657.49C1450.52 1643.83 1461.59 1632.76 1475.24 1632.76C1488.9 1632.76 1499.97 1643.83 1499.97 1657.49V2167.26C1499.97 2177.07 1504.87 2181.98 1514.68 2181.98H1730.13L1731.04 2181.97C1739.95 2181.68 1744.55 2177.08 1744.84 2168.17L1744.85 2167.26V1548C1744.85 1538.97 1741.71 1531.12 1735.43 1524.45L1617.7 1406.72C1611.45 1400.83 1604.16 1397.7 1595.83 1397.34L1594.15 1397.3V1309C1626.04 1309 1655.44 1320.98 1678.22 1342.42L1679.19 1343.33L1714.18 1378.33C1718.42 1365.18 1725.84 1351.18 1738.48 1338.54C1763.33 1313.69 1793.44 1309 1811.96 1309V1397.3L1811.05 1397.31C1801.84 1397.61 1797.24 1402.51 1797.24 1412.02V1618.05C1797.24 1627.86 1802.15 1632.76 1811.96 1632.76H1952.06V1643.68L1789 2027.16Z" fill="#0F4C8A"/>
<path d="M481.943 2466.48C479.738 2466.48 478.084 2465.62 476.981 2463.91C475.929 2462.2 475.327 2459.34 475.177 2455.32C475.127 2453.61 475.102 2451.22 475.102 2448.15C475.152 2445.09 475.202 2441.64 475.252 2437.82C475.352 2433.95 475.453 2429.93 475.553 2425.76C475.653 2421.54 475.753 2417.41 475.854 2413.39C475.954 2409.32 476.029 2405.6 476.079 2402.23C476.179 2398.81 476.229 2395.97 476.229 2393.71C476.229 2390.95 475.778 2389.14 474.876 2388.28C474.024 2387.43 472.12 2387 469.163 2387C465.855 2387 462.572 2387.25 459.314 2387.76C456.056 2388.26 452.823 2388.51 449.616 2388.51C448.363 2388.51 447.21 2388.31 446.158 2387.91C445.155 2387.5 444.378 2386.9 443.827 2386.1C443.276 2385.29 443 2384.29 443 2383.08C443 2381.62 443.827 2380.37 445.481 2379.31C447.135 2378.2 449.465 2377.25 452.473 2376.45C455.53 2375.64 459.164 2375.01 463.374 2374.56C467.634 2374.06 472.345 2373.71 477.507 2373.5C482.67 2373.25 488.158 2373.13 493.972 2373.13C497.33 2373.13 500.613 2373.2 503.82 2373.35C507.028 2373.45 510.035 2373.68 512.842 2374.03C515.699 2374.38 518.18 2374.89 520.285 2375.54C522.44 2376.19 524.119 2377.02 525.322 2378.03C526.525 2378.98 527.126 2380.19 527.126 2381.65C527.126 2382.95 526.8 2384.04 526.149 2384.89C525.547 2385.69 524.645 2386.3 523.442 2386.7C522.239 2387.1 520.811 2387.3 519.157 2387.3C516.551 2387.3 514.245 2387.23 512.24 2387.08C510.236 2386.88 507.905 2386.78 505.249 2386.78C501.139 2386.78 498.157 2387.05 496.302 2387.6C494.498 2388.11 493.345 2389.16 492.844 2390.77C492.393 2392.38 492.142 2394.87 492.092 2398.24C492.042 2400.45 491.967 2402.89 491.867 2405.55C491.767 2408.16 491.641 2410.93 491.491 2413.84C491.391 2416.71 491.24 2419.68 491.04 2422.74C490.839 2425.76 490.639 2428.77 490.438 2431.79C490.238 2434.76 490.037 2437.65 489.837 2440.46C489.636 2443.28 489.436 2445.94 489.235 2448.45C489.085 2450.92 488.935 2453.15 488.784 2455.17C488.383 2458.03 487.932 2460.29 487.431 2461.95C486.93 2463.61 486.253 2464.77 485.401 2465.42C484.549 2466.12 483.397 2466.48 481.943 2466.48Z" fill="#0F4C8A"/>
<path d="M585.247 2471C578.03 2471 571.439 2469.84 565.475 2467.53C559.51 2465.22 554.373 2461.9 550.063 2457.58C545.753 2453.26 542.42 2448.08 540.064 2442.05C537.708 2435.96 536.531 2429.2 536.531 2421.76C536.531 2414.83 537.633 2408.72 539.838 2403.44C542.044 2398.11 545.026 2393.54 548.785 2389.72C552.544 2385.9 556.779 2382.78 561.49 2380.37C566.201 2377.95 571.113 2376.17 576.225 2375.01C581.388 2373.86 586.4 2373.28 591.261 2373.28C598.93 2373.28 605.946 2374.43 612.312 2376.75C618.727 2379.01 624.29 2382.28 629.002 2386.55C633.713 2390.82 637.346 2395.92 639.903 2401.86C642.509 2407.74 643.812 2414.3 643.812 2421.54C643.812 2429.53 642.358 2436.62 639.452 2442.8C636.595 2448.93 632.535 2454.11 627.272 2458.33C622.01 2462.5 615.82 2465.65 608.703 2467.76C601.586 2469.92 593.767 2471 585.247 2471ZM587.728 2456.15C597.601 2456.15 605.495 2454.56 611.41 2451.4C617.374 2448.23 621.684 2444.01 624.34 2438.73C626.997 2433.4 628.325 2427.57 628.325 2421.23C628.325 2415.35 627.373 2410.15 625.468 2405.63C623.564 2401.05 620.907 2397.23 617.499 2394.16C614.091 2391.05 610.157 2388.71 605.696 2387.15C601.235 2385.54 596.449 2384.74 591.337 2384.74C586.274 2384.74 581.463 2385.49 576.902 2387C572.341 2388.51 568.281 2390.7 564.723 2393.56C561.215 2396.38 558.433 2399.82 556.378 2403.89C554.323 2407.91 553.296 2412.44 553.296 2417.46C553.296 2423.5 554.148 2428.9 555.852 2433.68C557.556 2438.45 559.936 2442.5 562.994 2445.82C566.101 2449.13 569.76 2451.7 573.97 2453.51C578.18 2455.27 582.766 2456.15 587.728 2456.15Z" fill="#0F4C8A"/>
<path d="M684.734 2464.74C682.529 2464.74 680.975 2464.11 680.073 2462.86C679.221 2461.6 678.595 2459.66 678.194 2457.05C678.093 2455.99 677.993 2454.76 677.893 2453.36C677.843 2451.9 677.793 2450.39 677.743 2448.83C677.693 2447.22 677.617 2445.61 677.517 2444.01C677.467 2442.4 677.417 2440.89 677.367 2439.48C677.216 2436.57 676.891 2434.08 676.389 2432.02C675.888 2429.91 674.585 2428.12 672.48 2426.66C670.175 2425.05 667.894 2423.45 665.639 2421.84C663.433 2420.23 661.454 2418.49 659.7 2416.63C657.695 2414.62 655.865 2412.16 654.211 2409.25C652.557 2406.28 651.129 2403.14 649.926 2399.82C648.773 2396.5 647.871 2393.18 647.22 2389.87C646.618 2386.55 646.318 2383.51 646.318 2380.74C646.318 2378.93 646.618 2377.4 647.22 2376.14C647.871 2374.89 648.748 2373.93 649.851 2373.28C651.004 2372.62 652.332 2372.3 653.835 2372.3C655.189 2372.3 656.392 2373.05 657.444 2374.56C658.497 2376.07 659.424 2378.56 660.226 2382.02C660.727 2384.54 661.404 2387.15 662.256 2389.87C663.108 2392.53 664.11 2395.14 665.263 2397.71C666.716 2401.18 668.445 2404.39 670.45 2407.36C672.455 2410.28 674.685 2412.61 677.141 2414.37C679.647 2416.08 682.329 2416.94 685.185 2416.94C687.742 2416.94 690.273 2416.16 692.779 2414.6C695.335 2412.99 697.765 2410.95 700.071 2408.49C703.078 2405.17 705.76 2401.4 708.115 2397.18C710.521 2392.96 712.3 2389.01 713.453 2385.34C714.906 2381.42 716.185 2378.56 717.287 2376.75C718.39 2374.89 719.618 2373.96 720.971 2373.96C722.324 2373.96 723.502 2374.31 724.504 2375.01C725.557 2375.72 726.359 2376.67 726.91 2377.88C727.512 2379.08 727.812 2380.47 727.812 2382.02C727.812 2384.69 727.361 2387.6 726.459 2390.77C725.607 2393.89 724.404 2397.08 722.85 2400.35C721.347 2403.56 719.568 2406.66 717.513 2409.62C715.458 2412.59 713.278 2415.23 710.972 2417.54C708.667 2419.85 706.311 2421.91 703.905 2423.72C701.499 2425.48 699.394 2426.99 697.59 2428.25C696.337 2429.15 695.385 2430.03 694.733 2430.89C694.082 2431.69 693.58 2432.59 693.23 2433.6C692.929 2434.61 692.653 2435.86 692.403 2437.37C692.302 2438.53 692.177 2439.93 692.027 2441.59C691.927 2443.25 691.801 2445.01 691.651 2446.87C691.551 2448.73 691.425 2450.57 691.275 2452.38C691.175 2454.19 691.024 2455.84 690.824 2457.35C690.573 2459.66 689.922 2461.47 688.869 2462.78C687.867 2464.09 686.489 2464.74 684.734 2464.74Z" fill="#0F4C8A"/>
<path d="M766.832 2466.85C762.371 2466.85 758.111 2466.48 754.051 2465.72C750.042 2464.97 746.458 2463.96 743.3 2462.71C740.193 2461.45 737.737 2460.04 735.933 2458.48C734.129 2456.92 733.226 2455.34 733.226 2453.73C733.226 2452.53 733.502 2451.6 734.053 2450.94C734.605 2450.24 735.331 2449.74 736.234 2449.43C737.186 2449.13 738.213 2448.98 739.316 2448.98C740.318 2448.98 741.872 2449.46 743.977 2450.42C746.132 2451.32 748.839 2452.28 752.097 2453.28C755.404 2454.24 759.264 2454.71 763.674 2454.71C768.085 2454.71 771.944 2454.54 775.252 2454.19C778.56 2453.78 781.291 2453.1 783.446 2452.15C785.652 2451.19 787.281 2449.86 788.333 2448.15C789.436 2446.39 789.987 2444.18 789.987 2441.52C789.987 2438.9 789.335 2436.59 788.032 2434.58C786.779 2432.57 785 2430.76 782.695 2429.15C780.439 2427.49 777.758 2425.93 774.65 2424.48C771.593 2423.02 768.285 2421.56 764.727 2420.1C760.617 2418.39 756.758 2416.63 753.149 2414.83C749.591 2413.02 746.483 2411.05 743.827 2408.94C741.17 2406.83 739.09 2404.44 737.587 2401.78C736.083 2399.07 735.331 2395.95 735.331 2392.43C735.331 2388.71 736.183 2385.52 737.888 2382.85C739.592 2380.14 741.872 2377.88 744.729 2376.07C747.586 2374.26 750.768 2372.83 754.277 2371.77C757.785 2370.71 761.344 2369.99 764.952 2369.58C768.611 2369.13 772.044 2368.9 775.252 2368.9C779.662 2368.9 783.722 2369.26 787.431 2369.96C791.19 2370.61 794.473 2371.54 797.279 2372.75C800.086 2373.91 802.266 2375.19 803.82 2376.6C805.374 2377.95 806.151 2379.36 806.151 2380.82C806.151 2381.87 805.9 2382.75 805.399 2383.46C804.898 2384.16 804.246 2384.71 803.444 2385.12C802.642 2385.47 801.765 2385.64 800.813 2385.64C799.861 2385.64 798.407 2385.12 796.453 2384.06C794.498 2382.95 791.942 2381.87 788.784 2380.82C785.677 2379.76 781.792 2379.23 777.131 2379.23C774.224 2379.23 771.343 2379.46 768.486 2379.91C765.679 2380.32 763.123 2381.02 760.817 2382.02C758.512 2382.98 756.657 2384.34 755.254 2386.1C753.851 2387.81 753.149 2389.99 753.149 2392.66C753.149 2395.12 753.725 2397.31 754.878 2399.22C756.081 2401.08 757.735 2402.76 759.84 2404.27C761.945 2405.73 764.401 2407.13 767.208 2408.49C770.064 2409.8 773.122 2411.11 776.38 2412.41C780.74 2414.22 784.85 2416.13 788.709 2418.14C792.568 2420.15 795.951 2422.37 798.858 2424.78C801.765 2427.14 804.046 2429.81 805.7 2432.77C807.404 2435.74 808.256 2439.05 808.256 2442.72C808.256 2447.3 807.203 2451.14 805.098 2454.26C803.043 2457.38 800.136 2459.87 796.377 2461.73C792.668 2463.54 788.283 2464.84 783.221 2465.65C778.209 2466.45 772.746 2466.85 766.832 2466.85Z" fill="#0F4C8A"/>
<path d="M903.507 2466.48C901.302 2466.48 899.648 2465.62 898.545 2463.91C897.493 2462.2 896.891 2459.34 896.741 2455.32C896.691 2453.61 896.666 2451.22 896.666 2448.15C896.716 2445.09 896.766 2441.64 896.816 2437.82C896.916 2433.95 897.017 2429.93 897.117 2425.76C897.217 2421.54 897.317 2417.41 897.418 2413.39C897.518 2409.32 897.593 2405.6 897.643 2402.23C897.743 2398.81 897.794 2395.97 897.794 2393.71C897.794 2390.95 897.342 2389.14 896.44 2388.28C895.588 2387.43 893.684 2387 890.727 2387C887.419 2387 884.136 2387.25 880.878 2387.76C877.62 2388.26 874.388 2388.51 871.18 2388.51C869.927 2388.51 868.774 2388.31 867.722 2387.91C866.719 2387.5 865.942 2386.9 865.391 2386.1C864.84 2385.29 864.564 2384.29 864.564 2383.08C864.564 2381.62 865.391 2380.37 867.045 2379.31C868.699 2378.2 871.03 2377.25 874.037 2376.45C877.094 2375.64 880.728 2375.01 884.938 2374.56C889.198 2374.06 893.909 2373.71 899.072 2373.5C904.234 2373.25 909.722 2373.13 915.536 2373.13C918.894 2373.13 922.177 2373.2 925.384 2373.35C928.592 2373.45 931.599 2373.68 934.406 2374.03C937.263 2374.38 939.744 2374.89 941.849 2375.54C944.004 2376.19 945.683 2377.02 946.886 2378.03C948.089 2378.98 948.69 2380.19 948.69 2381.65C948.69 2382.95 948.364 2384.04 947.713 2384.89C947.111 2385.69 946.209 2386.3 945.006 2386.7C943.803 2387.1 942.375 2387.3 940.721 2387.3C938.115 2387.3 935.809 2387.23 933.805 2387.08C931.8 2386.88 929.469 2386.78 926.813 2386.78C922.703 2386.78 919.721 2387.05 917.866 2387.6C916.062 2388.11 914.909 2389.16 914.408 2390.77C913.957 2392.38 913.707 2394.87 913.656 2398.24C913.606 2400.45 913.531 2402.89 913.431 2405.55C913.331 2408.16 913.205 2410.93 913.055 2413.84C912.955 2416.71 912.804 2419.68 912.604 2422.74C912.403 2425.76 912.203 2428.77 912.002 2431.79C911.802 2434.76 911.602 2437.65 911.401 2440.46C911.201 2443.28 911 2445.94 910.8 2448.45C910.649 2450.92 910.499 2453.15 910.349 2455.17C909.948 2458.03 909.496 2460.29 908.995 2461.95C908.494 2463.61 907.817 2464.77 906.965 2465.42C906.113 2466.12 904.961 2466.48 903.507 2466.48Z" fill="#0F4C8A"/>
<path d="M1032.22 2464.59C1030.62 2464.59 1029.42 2464.16 1028.61 2463.31C1027.81 2462.45 1027.29 2461 1027.03 2458.94C1026.98 2456.92 1026.96 2454.79 1026.96 2452.53C1026.96 2450.26 1026.96 2448 1026.96 2445.74C1027.01 2443.43 1027.03 2441.19 1027.03 2439.03C1027.03 2436.87 1027.03 2434.88 1027.03 2433.07C1027.08 2431.21 1027.11 2429.65 1027.11 2428.4C1027.06 2425.73 1026.78 2423.92 1026.28 2422.97C1025.83 2422.01 1025.13 2421.36 1024.18 2421.01C1023.13 2420.61 1020.89 2420.23 1017.49 2419.88C1014.13 2419.53 1008.67 2419.35 1001.1 2419.35C996.737 2419.35 993.229 2419.37 990.572 2419.42C987.966 2419.42 985.911 2419.5 984.408 2419.65C982.904 2419.75 981.726 2419.88 980.874 2420.03C980.072 2420.18 979.32 2420.4 978.619 2420.71C977.917 2420.96 977.24 2421.44 976.589 2422.14C975.937 2422.84 975.536 2424.05 975.386 2425.76C975.336 2426.61 975.261 2427.62 975.16 2428.77C975.11 2429.88 975.06 2431.19 975.01 2432.7C974.96 2434.15 974.91 2435.81 974.86 2437.67C974.86 2439.53 974.835 2441.64 974.785 2444.01C974.734 2446.32 974.684 2448.91 974.634 2451.77C974.484 2455.24 974.133 2457.85 973.582 2459.61C973.03 2461.37 972.279 2462.55 971.326 2463.16C970.374 2463.76 969.196 2464.06 967.793 2464.06C965.588 2464.06 963.984 2462.83 962.981 2460.37C961.979 2457.91 961.252 2454.89 960.801 2451.32C960.651 2449.26 960.475 2446.77 960.275 2443.86C960.124 2440.89 959.999 2437.77 959.899 2434.51C959.849 2431.19 959.774 2428 959.673 2424.93C959.623 2421.86 959.598 2419.2 959.598 2416.94C959.598 2413.37 959.648 2410.02 959.749 2406.91C959.849 2403.79 959.974 2400.88 960.125 2398.16C960.275 2395.4 960.45 2392.86 960.651 2390.55C960.851 2388.18 961.077 2386.05 961.327 2384.14C961.829 2380.87 962.43 2378.18 963.132 2376.07C963.883 2373.96 964.811 2372.4 965.913 2371.39C967.016 2370.39 968.319 2369.89 969.823 2369.89C971.627 2369.89 972.93 2370.71 973.732 2372.37C974.584 2374.03 975.16 2377.05 975.461 2381.42C975.511 2383.08 975.561 2384.71 975.612 2386.32C975.662 2387.93 975.737 2389.49 975.837 2391C975.937 2392.51 976.012 2393.89 976.063 2395.14C976.113 2396.35 976.163 2397.43 976.213 2398.39C976.313 2399.29 976.388 2400.02 976.438 2400.57C976.689 2402.38 977.015 2403.79 977.416 2404.8C977.867 2405.8 978.844 2406.41 980.348 2406.61C982.252 2406.86 985.134 2406.98 988.994 2406.98C992.903 2406.98 997.038 2406.98 1001.4 2406.98C1004.86 2406.98 1008.14 2407.03 1011.25 2407.13C1014.4 2407.23 1017.11 2407.31 1019.37 2407.36C1021.67 2407.36 1023.28 2407.28 1024.18 2407.13C1025.08 2406.88 1025.78 2406.35 1026.28 2405.55C1026.83 2404.75 1027.21 2403.29 1027.41 2401.18C1027.46 2400.22 1027.51 2398.99 1027.56 2397.48C1027.66 2395.97 1027.76 2394.24 1027.86 2392.28C1027.96 2390.27 1028.06 2388.16 1028.16 2385.95C1028.26 2383.68 1028.39 2381.37 1028.54 2379.01C1028.84 2374.84 1029.47 2371.97 1030.42 2370.41C1031.42 2368.8 1032.67 2368 1034.18 2368C1036.08 2368 1037.51 2368.9 1038.46 2370.71C1039.46 2372.47 1040.24 2375.59 1040.79 2380.06C1040.99 2381.22 1041.17 2382.93 1041.32 2385.19C1041.52 2387.4 1041.67 2390.02 1041.77 2393.03C1041.92 2396.05 1042.02 2399.27 1042.07 2402.69C1042.17 2406.1 1042.22 2409.57 1042.22 2413.09C1042.22 2415.86 1042.17 2418.82 1042.07 2421.99C1042.02 2425.1 1041.89 2428.25 1041.69 2431.41C1041.54 2434.53 1041.37 2437.55 1041.17 2440.46C1040.97 2443.38 1040.74 2446.09 1040.49 2448.61C1040.24 2451.07 1039.99 2453.18 1039.74 2454.94C1039.14 2458.56 1038.21 2461.07 1036.96 2462.48C1035.71 2463.89 1034.13 2464.59 1032.22 2464.59Z" fill="#0F4C8A"/>
<path d="M1144.05 2466.25C1142.4 2466.25 1140.97 2465.72 1139.77 2464.67C1138.62 2463.66 1137.59 2462.2 1136.69 2460.29C1136.24 2458.78 1135.71 2456.98 1135.11 2454.86C1134.56 2452.75 1133.98 2450.62 1133.38 2448.45C1132.83 2446.24 1132.28 2444.18 1131.72 2442.27C1131.17 2440.31 1130.67 2438.75 1130.22 2437.6C1129.62 2435.94 1128.82 2434.73 1127.82 2433.98C1126.86 2433.22 1125.28 2432.72 1123.08 2432.47C1122.03 2432.37 1120.32 2432.24 1117.97 2432.09C1115.66 2431.89 1113.13 2431.72 1110.37 2431.56C1107.67 2431.41 1105.11 2431.34 1102.71 2431.34C1099.05 2431.34 1095.36 2431.41 1091.65 2431.56C1087.94 2431.72 1084.76 2431.92 1082.11 2432.17C1079.8 2432.32 1078.12 2432.75 1077.07 2433.45C1076.07 2434.1 1075.21 2435.28 1074.51 2436.99C1073.91 2438.55 1073.23 2440.49 1072.48 2442.8C1071.78 2445.11 1071.05 2447.55 1070.3 2450.11C1069.6 2452.63 1068.9 2455.06 1068.2 2457.43C1067.3 2459.94 1066.24 2461.78 1065.04 2462.93C1063.89 2464.09 1062.26 2464.67 1060.15 2464.67C1058.7 2464.67 1057.47 2464.39 1056.47 2463.84C1055.47 2463.33 1054.72 2462.5 1054.21 2461.35C1053.76 2460.14 1053.54 2458.58 1053.54 2456.67C1053.54 2454.56 1053.86 2451.9 1054.51 2448.68C1055.17 2445.41 1056.04 2441.84 1057.15 2437.97C1058.3 2434.1 1059.55 2430.13 1060.91 2426.06C1062.31 2421.99 1063.71 2418.07 1065.12 2414.3C1066.52 2410.53 1067.87 2407.11 1069.17 2404.04C1070.48 2400.98 1071.61 2398.54 1072.56 2396.73C1074.26 2393.41 1076.17 2390.24 1078.27 2387.23C1080.43 2384.21 1082.78 2381.57 1085.34 2379.31C1087.94 2377 1090.78 2375.19 1093.83 2373.88C1096.89 2372.52 1100.25 2371.85 1103.91 2371.85C1109.92 2371.85 1115.29 2373.83 1120 2377.8C1124.71 2381.77 1128.84 2386.95 1132.4 2393.34C1133.65 2395.4 1134.96 2398.16 1136.31 2401.63C1137.71 2405.05 1139.12 2408.87 1140.52 2413.09C1141.92 2417.26 1143.23 2421.59 1144.43 2426.06C1145.68 2430.53 1146.81 2434.91 1147.81 2439.18C1148.82 2443.45 1149.59 2447.37 1150.14 2450.94C1150.69 2454.51 1150.97 2457.45 1150.97 2459.77C1150.97 2462.13 1150.34 2463.79 1149.09 2464.74C1147.89 2465.75 1146.21 2466.25 1144.05 2466.25ZM1123.91 2421.99C1125.01 2421.84 1125.74 2421.46 1126.09 2420.86C1126.49 2420.25 1126.69 2419.25 1126.69 2417.84C1126.69 2416.13 1126.39 2414.02 1125.79 2411.51C1125.23 2408.94 1124.43 2406.25 1123.38 2403.44C1122.38 2400.57 1121.2 2397.88 1119.85 2395.37C1117.89 2391.65 1115.61 2388.56 1113 2386.1C1110.45 2383.63 1107.67 2382.4 1104.66 2382.4C1101.55 2382.4 1098.55 2383.63 1095.64 2386.1C1092.78 2388.51 1090.2 2391.68 1087.89 2395.6C1086.94 2397.21 1085.94 2399.04 1084.89 2401.1C1083.89 2403.16 1082.96 2405.27 1082.11 2407.44C1081.25 2409.55 1080.53 2411.56 1079.93 2413.47C1079.37 2415.33 1079.1 2416.91 1079.1 2418.22C1079.1 2419.63 1079.65 2420.61 1080.75 2421.16C1081.91 2421.66 1083.91 2421.91 1086.77 2421.91C1093.28 2421.91 1098.92 2421.94 1103.68 2421.99C1108.44 2422.04 1112.45 2422.09 1115.71 2422.14C1119.02 2422.14 1121.75 2422.09 1123.91 2421.99Z" fill="#0F4C8A"/>
<path d="M1190.13 2466.48C1187.92 2466.48 1186.27 2465.62 1185.17 2463.91C1184.12 2462.2 1183.51 2459.34 1183.36 2455.32C1183.31 2453.61 1183.29 2451.22 1183.29 2448.15C1183.34 2445.09 1183.39 2441.64 1183.44 2437.82C1183.54 2433.95 1183.64 2429.93 1183.74 2425.76C1183.84 2421.54 1183.94 2417.41 1184.04 2413.39C1184.14 2409.32 1184.22 2405.6 1184.27 2402.23C1184.37 2398.81 1184.42 2395.97 1184.42 2393.71C1184.42 2390.95 1183.96 2389.14 1183.06 2388.28C1182.21 2387.43 1180.31 2387 1177.35 2387C1174.04 2387 1170.76 2387.25 1167.5 2387.76C1164.24 2388.26 1161.01 2388.51 1157.8 2388.51C1156.55 2388.51 1155.4 2388.31 1154.34 2387.91C1153.34 2387.5 1152.56 2386.9 1152.01 2386.1C1151.46 2385.29 1151.19 2384.29 1151.19 2383.08C1151.19 2381.62 1152.01 2380.37 1153.67 2379.31C1155.32 2378.2 1157.65 2377.25 1160.66 2376.45C1163.72 2375.64 1167.35 2375.01 1171.56 2374.56C1175.82 2374.06 1180.53 2373.71 1185.69 2373.5C1190.86 2373.25 1196.34 2373.13 1202.16 2373.13C1205.52 2373.13 1208.8 2373.2 1212.01 2373.35C1215.21 2373.45 1218.22 2373.68 1221.03 2374.03C1223.89 2374.38 1226.37 2374.89 1228.47 2375.54C1230.63 2376.19 1232.31 2377.02 1233.51 2378.03C1234.71 2378.98 1235.31 2380.19 1235.31 2381.65C1235.31 2382.95 1234.99 2384.04 1234.34 2384.89C1233.73 2385.69 1232.83 2386.3 1231.63 2386.7C1230.43 2387.1 1229 2387.3 1227.34 2387.3C1224.74 2387.3 1222.43 2387.23 1220.43 2387.08C1218.42 2386.88 1216.09 2386.78 1213.44 2386.78C1209.33 2386.78 1206.34 2387.05 1204.49 2387.6C1202.68 2388.11 1201.53 2389.16 1201.03 2390.77C1200.58 2392.38 1200.33 2394.87 1200.28 2398.24C1200.23 2400.45 1200.15 2402.89 1200.05 2405.55C1199.95 2408.16 1199.83 2410.93 1199.68 2413.84C1199.58 2416.71 1199.43 2419.68 1199.23 2422.74C1199.03 2425.76 1198.83 2428.77 1198.62 2431.79C1198.42 2434.76 1198.22 2437.65 1198.02 2440.46C1197.82 2443.28 1197.62 2445.94 1197.42 2448.45C1197.27 2450.92 1197.12 2453.15 1196.97 2455.17C1196.57 2458.03 1196.12 2460.29 1195.62 2461.95C1195.12 2463.61 1194.44 2464.77 1193.59 2465.42C1192.74 2466.12 1191.58 2466.48 1190.13 2466.48Z" fill="#0F4C8A"/>
<path d="M1329.28 2465.87C1319.15 2465.87 1311.11 2463.16 1305.15 2457.73C1299.23 2452.25 1294.95 2445.04 1292.29 2436.09C1291.74 2434.08 1291.24 2432.02 1290.79 2429.91C1290.39 2427.74 1290.04 2425.53 1289.73 2423.27C1289.43 2421.01 1289.18 2418.7 1288.98 2416.33C1288.83 2413.97 1288.71 2411.56 1288.61 2409.09C1288.56 2406.63 1288.53 2404.12 1288.53 2401.55C1288.53 2394.57 1288.83 2389.06 1289.43 2385.04C1290.04 2381.02 1291.01 2378.18 1292.37 2376.52C1293.72 2374.81 1295.47 2373.96 1297.63 2373.96C1299.13 2373.96 1300.33 2374.74 1301.24 2376.29C1302.19 2377.85 1302.87 2380.64 1303.27 2384.66C1303.72 2388.69 1303.94 2394.39 1303.94 2401.78C1303.94 2403.94 1303.97 2406.13 1304.02 2408.34C1304.12 2410.5 1304.22 2412.61 1304.32 2414.67C1304.47 2416.68 1304.65 2418.67 1304.85 2420.63C1305.1 2422.59 1305.37 2424.5 1305.67 2426.36C1306.02 2428.17 1306.42 2429.88 1306.88 2431.49C1308.53 2437.52 1311.11 2442.37 1314.62 2446.04C1318.18 2449.66 1323.11 2451.47 1329.43 2451.47C1333.34 2451.47 1336.75 2450.64 1339.65 2448.98C1342.56 2447.27 1345.04 2444.94 1347.1 2441.97C1349.2 2439 1350.88 2435.56 1352.13 2431.64C1352.84 2429.48 1353.44 2427.22 1353.94 2424.85C1354.44 2422.44 1354.84 2419.98 1355.14 2417.46C1355.49 2414.9 1355.74 2412.29 1355.89 2409.62C1356.04 2406.96 1356.12 2404.27 1356.12 2401.55C1356.12 2394.72 1356.37 2389.39 1356.87 2385.57C1357.37 2381.7 1358.17 2378.98 1359.28 2377.43C1360.43 2375.87 1361.93 2375.09 1363.79 2375.09C1365.69 2375.09 1367.12 2375.99 1368.07 2377.8C1369.07 2379.56 1369.75 2382.5 1370.1 2386.62C1370.45 2390.7 1370.63 2396.13 1370.63 2402.91C1370.63 2405.37 1370.55 2407.81 1370.4 2410.23C1370.3 2412.59 1370.13 2414.93 1369.88 2417.24C1369.68 2419.55 1369.37 2421.81 1368.97 2424.02C1368.62 2426.19 1368.2 2428.32 1367.7 2430.43C1367.24 2432.49 1366.69 2434.51 1366.04 2436.47C1364.14 2442.35 1361.51 2447.5 1358.15 2451.92C1354.84 2456.35 1350.78 2459.79 1345.97 2462.25C1341.16 2464.67 1335.59 2465.87 1329.28 2465.87Z" fill="#0F4C8A"/>
<path d="M1395.81 2466.85C1394.16 2466.85 1392.8 2466.22 1391.75 2464.97C1390.7 2463.71 1389.85 2461.93 1389.19 2459.61C1388.84 2458.36 1388.49 2456.22 1388.14 2453.2C1387.79 2450.19 1387.44 2446.64 1387.09 2442.57C1386.79 2438.5 1386.49 2434.25 1386.19 2429.83C1385.94 2425.36 1385.71 2421.01 1385.51 2416.79C1385.31 2412.56 1385.13 2408.82 1384.98 2405.55C1384.88 2402.28 1384.83 2399.82 1384.83 2398.16C1384.83 2393.18 1385.13 2388.99 1385.74 2385.57C1386.39 2382.1 1387.56 2379.49 1389.27 2377.73C1390.97 2375.92 1393.43 2375.01 1396.64 2375.01C1398.99 2375.01 1401.47 2376.22 1404.08 2378.63C1406.74 2381.04 1409.92 2384.87 1413.63 2390.09C1417.34 2395.32 1422.02 2402.16 1427.69 2410.6C1435.35 2422.42 1441.42 2431.06 1445.88 2436.54C1450.39 2441.97 1453.55 2444.68 1455.35 2444.68C1456.25 2444.68 1457.01 2444.43 1457.61 2443.93C1458.21 2443.38 1458.66 2442.32 1458.96 2440.76C1459.31 2439.15 1459.51 2436.74 1459.56 2433.52C1459.61 2432.12 1459.61 2430.01 1459.56 2427.19C1459.56 2424.33 1459.51 2421.11 1459.41 2417.54C1459.36 2413.97 1459.29 2410.33 1459.19 2406.61C1459.09 2402.84 1458.99 2399.29 1458.89 2395.97C1458.84 2392.61 1458.78 2389.77 1458.73 2387.45C1458.73 2385.09 1458.78 2383.58 1458.89 2382.93C1459.29 2380.06 1459.99 2378.13 1460.99 2377.12C1461.99 2376.07 1463.45 2375.54 1465.35 2375.54C1466.65 2375.54 1467.76 2375.79 1468.66 2376.29C1469.56 2376.75 1470.31 2377.48 1470.91 2378.48C1471.52 2379.44 1471.97 2380.72 1472.27 2382.33C1472.62 2383.88 1472.82 2385.74 1472.87 2387.91C1472.97 2389.31 1473.04 2391.5 1473.09 2394.47C1473.19 2397.43 1473.29 2400.88 1473.39 2404.8C1473.5 2408.67 1473.57 2412.71 1473.62 2416.94C1473.67 2421.16 1473.7 2425.26 1473.7 2429.23C1473.75 2433.2 1473.72 2436.79 1473.62 2440.01C1473.57 2443.18 1473.45 2445.61 1473.24 2447.32C1472.84 2451.14 1472.14 2454.36 1471.14 2456.98C1470.14 2459.59 1468.73 2461.55 1466.93 2462.86C1465.13 2464.11 1462.77 2464.74 1459.86 2464.74C1457.11 2464.74 1454.02 2463.16 1450.62 2459.99C1447.21 2456.82 1443.47 2452.45 1439.41 2446.87C1435.35 2441.29 1430.94 2434.96 1426.18 2427.87C1423.17 2423.4 1420.34 2419.2 1417.69 2415.28C1415.08 2411.36 1412.72 2407.94 1410.62 2405.02C1408.51 2402.06 1406.74 2399.74 1405.28 2398.09C1403.88 2396.38 1402.88 2395.52 1402.27 2395.52C1401.22 2395.52 1400.5 2396.18 1400.09 2397.48C1399.74 2398.74 1399.57 2401.3 1399.57 2405.17C1399.57 2407.74 1399.62 2410.63 1399.72 2413.84C1399.87 2417.01 1400.04 2420.3 1400.25 2423.72C1400.45 2427.14 1400.67 2430.58 1400.92 2434.05C1401.17 2437.52 1401.37 2440.86 1401.52 2444.08C1401.72 2447.3 1401.85 2450.26 1401.9 2452.98C1402 2455.69 1402.02 2458.06 1401.97 2460.07C1401.57 2462.78 1400.87 2464.59 1399.87 2465.5C1398.92 2466.4 1397.56 2466.85 1395.81 2466.85Z" fill="#0F4C8A"/>
<path d="M1508.1 2464.59C1504.69 2464.59 1501.88 2464.01 1499.68 2462.86C1497.47 2461.7 1495.72 2459.99 1494.42 2457.73C1493.11 2455.47 1492.14 2452.63 1491.48 2449.21C1490.73 2445.39 1490.18 2440.84 1489.83 2435.56C1489.53 2430.23 1489.38 2424.33 1489.38 2417.84C1489.38 2412.01 1489.53 2406.56 1489.83 2401.48C1490.13 2396.35 1490.68 2391.83 1491.48 2387.91C1492.54 2382.83 1494.24 2378.83 1496.6 2375.92C1499 2373 1502.64 2371.54 1507.5 2371.54C1515.52 2371.54 1523.01 2372.5 1529.98 2374.41C1536.99 2376.32 1543.33 2378.88 1549 2382.1C1554.66 2385.32 1559.52 2388.94 1563.58 2392.96C1567.69 2396.98 1570.82 2401.15 1572.98 2405.48C1575.19 2409.75 1576.29 2413.92 1576.29 2417.99C1576.29 2422.82 1575.24 2427.52 1573.13 2432.09C1571.03 2436.67 1567.99 2440.91 1564.03 2444.84C1560.07 2448.76 1555.29 2452.2 1549.67 2455.17C1544.11 2458.13 1537.82 2460.44 1530.8 2462.1C1523.84 2463.76 1516.27 2464.59 1508.1 2464.59ZM1513.81 2450.94C1520.08 2450.94 1525.72 2450.26 1530.73 2448.91C1535.79 2447.55 1540.23 2445.74 1544.04 2443.48C1547.89 2441.17 1551.1 2438.55 1553.66 2435.64C1556.26 2432.67 1558.22 2429.6 1559.52 2426.44C1560.83 2423.22 1561.48 2420.08 1561.48 2417.01C1561.48 2414.4 1560.7 2411.63 1559.15 2408.72C1557.59 2405.75 1555.34 2402.86 1552.38 2400.05C1549.47 2397.18 1545.94 2394.62 1541.78 2392.36C1537.67 2390.04 1533.01 2388.21 1527.8 2386.85C1522.63 2385.44 1517.05 2384.74 1511.03 2384.74C1509.48 2384.74 1508.23 2385.47 1507.27 2386.93C1506.32 2388.33 1505.59 2390.29 1505.09 2392.81C1504.64 2395.07 1504.27 2397.71 1503.96 2400.72C1503.71 2403.74 1503.59 2406.91 1503.59 2410.23C1503.59 2417.87 1503.71 2424.38 1503.96 2429.75C1504.27 2435.13 1504.82 2439.48 1505.62 2442.8C1507.02 2448.23 1509.75 2450.94 1513.81 2450.94Z" fill="#0F4C8A"/>
<path d="M1618.36 2468.13C1611.8 2468.13 1606.41 2466.95 1602.2 2464.59C1598.04 2462.23 1594.86 2458.71 1592.65 2454.03C1590.49 2449.31 1589.07 2443.4 1588.36 2436.31C1588.21 2434.56 1588.09 2432.72 1587.99 2430.81C1587.89 2428.9 1587.81 2426.91 1587.76 2424.85C1587.71 2422.79 1587.66 2420.68 1587.61 2418.52C1587.61 2416.31 1587.61 2414.05 1587.61 2411.73C1587.61 2403.29 1588.39 2396.35 1589.94 2390.92C1591.5 2385.44 1593.95 2381.17 1597.31 2378.1C1600.72 2375.04 1605.13 2372.88 1610.54 2371.62C1616.01 2370.36 1622.6 2369.73 1630.31 2369.73C1634.07 2369.73 1637.68 2369.89 1641.14 2370.19C1644.6 2370.49 1647.66 2370.94 1650.31 2371.54C1653.02 2372.1 1655.15 2372.8 1656.7 2373.66C1658.26 2374.51 1659.03 2375.52 1659.03 2376.67C1659.03 2377.78 1658.68 2378.63 1657.98 2379.23C1657.33 2379.84 1656.45 2380.22 1655.35 2380.37C1653.8 2380.52 1651.74 2380.49 1649.18 2380.29C1646.63 2380.04 1643.75 2379.81 1640.54 2379.61C1637.33 2379.36 1634.02 2379.23 1630.62 2379.23C1625.4 2379.23 1621.02 2379.61 1617.46 2380.37C1613.9 2381.12 1611.04 2382.4 1608.89 2384.21C1606.78 2385.97 1605.25 2388.41 1604.3 2391.53C1603.35 2394.64 1602.87 2398.51 1602.87 2403.14C1602.87 2405.45 1603.15 2407.16 1603.7 2408.27C1604.3 2409.32 1605.73 2410 1607.99 2410.3C1610.24 2410.6 1613.83 2410.75 1618.74 2410.75C1619.79 2410.75 1621.14 2410.75 1622.8 2410.75C1624.45 2410.75 1626.18 2410.75 1627.98 2410.75C1629.84 2410.7 1631.54 2410.68 1633.1 2410.68C1634.7 2410.63 1635.93 2410.6 1636.78 2410.6C1640.54 2410.6 1643.1 2410.98 1644.45 2411.73C1645.8 2412.49 1646.48 2413.59 1646.48 2415.05C1646.48 2417.16 1645.7 2418.6 1644.15 2419.35C1642.64 2420.1 1640.51 2420.48 1637.76 2420.48C1636.55 2420.48 1635.15 2420.48 1633.55 2420.48C1631.94 2420.48 1630.26 2420.51 1628.51 2420.56C1626.76 2420.56 1625.05 2420.56 1623.4 2420.56C1621.74 2420.56 1620.29 2420.56 1619.04 2420.56C1613.88 2420.56 1610.09 2420.68 1607.69 2420.93C1605.28 2421.18 1603.73 2421.84 1603.02 2422.89C1602.37 2423.9 1602.05 2425.56 1602.05 2427.87C1602.05 2431.74 1602.2 2435.23 1602.5 2438.35C1602.8 2441.42 1603.35 2444.08 1604.15 2446.34C1604.95 2448.61 1606.11 2450.49 1607.61 2452C1609.11 2453.51 1611.04 2454.64 1613.4 2455.39C1615.75 2456.1 1618.64 2456.45 1622.05 2456.45C1626.31 2456.45 1630.47 2456.3 1634.52 2455.99C1638.63 2455.69 1642.32 2455.39 1645.58 2455.09C1648.83 2454.79 1651.34 2454.64 1653.09 2454.64C1654.95 2454.64 1656.28 2454.99 1657.08 2455.69C1657.93 2456.4 1658.36 2457.43 1658.36 2458.78C1658.36 2460.39 1657.13 2461.8 1654.67 2463.01C1652.22 2464.21 1648.98 2465.19 1644.97 2465.95C1641.02 2466.7 1636.68 2467.26 1631.97 2467.61C1627.31 2467.96 1622.77 2468.13 1618.36 2468.13Z" fill="#0F4C8A"/>
<path d="M1680.07 2466.4C1678.02 2466.4 1676.34 2465.6 1675.04 2463.99C1673.78 2462.43 1672.83 2459.99 1672.18 2456.67C1671.98 2455.27 1671.75 2453.41 1671.5 2451.09C1671.3 2448.78 1671.1 2446.24 1670.9 2443.48C1670.75 2440.66 1670.6 2437.8 1670.45 2434.88C1670.35 2431.97 1670.27 2429.13 1670.22 2426.36C1670.17 2423.6 1670.15 2421.16 1670.15 2419.05C1670.15 2412.16 1670.45 2406.03 1671.05 2400.65C1671.7 2395.27 1672.76 2390.6 1674.21 2386.62C1675.71 2382.6 1677.74 2379.31 1680.3 2376.75C1682.85 2374.13 1686.01 2372.2 1689.77 2370.94C1693.58 2369.63 1698.14 2368.98 1703.45 2368.98C1708.62 2368.98 1713.48 2369.53 1718.04 2370.64C1722.65 2371.69 1726.71 2373.33 1730.22 2375.54C1733.73 2377.7 1736.48 2380.44 1738.49 2383.76C1740.49 2387.03 1741.49 2390.85 1741.49 2395.22C1741.49 2399.49 1740.47 2403.11 1738.41 2406.08C1736.36 2408.99 1733.68 2411.38 1730.37 2413.24C1727.11 2415.05 1723.63 2416.46 1719.92 2417.46C1716.21 2418.42 1712.68 2419.12 1709.32 2419.58C1707.51 2419.78 1706.29 2420.03 1705.63 2420.33C1705.03 2420.58 1704.73 2420.96 1704.73 2421.46C1704.73 2421.86 1704.96 2422.37 1705.41 2422.97C1705.91 2423.52 1706.59 2424.23 1707.44 2425.08C1708.34 2425.88 1709.42 2426.89 1710.67 2428.1C1711.97 2429.25 1713.4 2430.63 1714.96 2432.24C1716.61 2433.85 1718.54 2435.76 1720.75 2437.97C1723 2440.19 1725.28 2442.5 1727.59 2444.91C1729.89 2447.27 1732.02 2449.54 1733.98 2451.7C1735.98 2453.81 1737.59 2455.62 1738.79 2457.13C1740.04 2458.58 1740.67 2459.54 1740.67 2459.99C1740.67 2461.05 1740.37 2461.93 1739.77 2462.63C1739.16 2463.33 1738.39 2463.86 1737.44 2464.21C1736.53 2464.57 1735.51 2464.74 1734.35 2464.74C1733 2464.74 1731.4 2464.24 1729.54 2463.23C1727.74 2462.18 1725.76 2460.77 1723.6 2459.01C1721.45 2457.2 1719.19 2455.12 1716.84 2452.75C1714.48 2450.39 1712.12 2447.88 1709.77 2445.21C1706.01 2441.24 1702.65 2437.8 1699.7 2434.88C1696.79 2431.92 1694.36 2429.63 1692.4 2428.02C1690.5 2426.41 1689.17 2425.61 1688.42 2425.61C1687.87 2425.61 1687.42 2425.86 1687.06 2426.36C1686.76 2426.81 1686.54 2427.64 1686.39 2428.85C1686.29 2430.06 1686.21 2431.72 1686.16 2433.83C1686.16 2435.94 1686.16 2438.65 1686.16 2441.97C1686.16 2442.82 1686.19 2443.96 1686.24 2445.36C1686.29 2446.72 1686.31 2448.18 1686.31 2449.74C1686.36 2451.29 1686.39 2452.8 1686.39 2454.26C1686.44 2455.67 1686.46 2456.92 1686.46 2458.03C1686.46 2459.09 1686.44 2459.79 1686.39 2460.14C1686.14 2462.35 1685.44 2463.94 1684.28 2464.89C1683.18 2465.9 1681.78 2466.4 1680.07 2466.4ZM1694.96 2414.37C1696.86 2414.37 1699.22 2414.2 1702.03 2413.84C1704.88 2413.49 1707.84 2412.89 1710.9 2412.04C1713.95 2411.13 1716.84 2409.95 1719.54 2408.49C1722.25 2406.98 1724.43 2405.12 1726.08 2402.91C1727.79 2400.7 1728.64 2398.09 1728.64 2395.07C1728.64 2391.9 1727.86 2389.24 1726.31 2387.08C1724.81 2384.92 1722.78 2383.18 1720.22 2381.87C1717.71 2380.57 1714.93 2379.61 1711.87 2379.01C1708.82 2378.41 1705.76 2378.1 1702.7 2378.1C1699.49 2378.1 1696.81 2378.56 1694.66 2379.46C1692.5 2380.32 1690.77 2381.67 1689.47 2383.53C1688.22 2385.34 1687.27 2387.73 1686.61 2390.7C1686.31 2392.3 1686.06 2393.94 1685.86 2395.6C1685.66 2397.21 1685.51 2398.79 1685.41 2400.35C1685.36 2401.86 1685.34 2403.31 1685.34 2404.72C1685.34 2407.18 1685.54 2409.12 1685.94 2410.53C1686.34 2411.93 1687.22 2412.94 1688.57 2413.54C1689.97 2414.1 1692.1 2414.37 1694.96 2414.37Z" fill="#0F4C8A"/>
<path d="M1783.67 2466.85C1779.21 2466.85 1774.95 2466.48 1770.89 2465.72C1766.88 2464.97 1763.29 2463.96 1760.13 2462.71C1757.03 2461.45 1754.57 2460.04 1752.77 2458.48C1750.96 2456.92 1750.06 2455.34 1750.06 2453.73C1750.06 2452.53 1750.34 2451.6 1750.89 2450.94C1751.44 2450.24 1752.17 2449.74 1753.07 2449.43C1754.02 2449.13 1755.05 2448.98 1756.15 2448.98C1757.15 2448.98 1758.71 2449.46 1760.81 2450.42C1762.97 2451.32 1765.67 2452.28 1768.93 2453.28C1772.24 2454.24 1776.1 2454.71 1780.51 2454.71C1784.92 2454.71 1788.78 2454.54 1792.09 2454.19C1795.39 2453.78 1798.13 2453.1 1800.28 2452.15C1802.49 2451.19 1804.11 2449.86 1805.17 2448.15C1806.27 2446.39 1806.82 2444.18 1806.82 2441.52C1806.82 2438.9 1806.17 2436.59 1804.87 2434.58C1803.61 2432.57 1801.83 2430.76 1799.53 2429.15C1797.27 2427.49 1794.59 2425.93 1791.48 2424.48C1788.43 2423.02 1785.12 2421.56 1781.56 2420.1C1777.45 2418.39 1773.59 2416.63 1769.98 2414.83C1766.42 2413.02 1763.32 2411.05 1760.66 2408.94C1758 2406.83 1755.92 2404.44 1754.42 2401.78C1752.92 2399.07 1752.17 2395.95 1752.17 2392.43C1752.17 2388.71 1753.02 2385.52 1754.72 2382.85C1756.43 2380.14 1758.71 2377.88 1761.56 2376.07C1764.42 2374.26 1767.6 2372.83 1771.11 2371.77C1774.62 2370.71 1778.18 2369.99 1781.79 2369.58C1785.45 2369.13 1788.88 2368.9 1792.09 2368.9C1796.5 2368.9 1800.56 2369.26 1804.27 2369.96C1808.02 2370.61 1811.31 2371.54 1814.11 2372.75C1816.92 2373.91 1819.1 2375.19 1820.65 2376.6C1822.21 2377.95 1822.98 2379.36 1822.98 2380.82C1822.98 2381.87 1822.73 2382.75 1822.23 2383.46C1821.73 2384.16 1821.08 2384.71 1820.28 2385.12C1819.48 2385.47 1818.6 2385.64 1817.65 2385.64C1816.69 2385.64 1815.24 2385.12 1813.29 2384.06C1811.33 2382.95 1808.78 2381.87 1805.62 2380.82C1802.51 2379.76 1798.63 2379.23 1793.97 2379.23C1791.06 2379.23 1788.18 2379.46 1785.32 2379.91C1782.51 2380.32 1779.96 2381.02 1777.65 2382.02C1775.35 2382.98 1773.49 2384.34 1772.09 2386.1C1770.68 2387.81 1769.98 2389.99 1769.98 2392.66C1769.98 2395.12 1770.56 2397.31 1771.71 2399.22C1772.92 2401.08 1774.57 2402.76 1776.67 2404.27C1778.78 2405.73 1781.24 2407.13 1784.04 2408.49C1786.9 2409.8 1789.96 2411.11 1793.21 2412.41C1797.57 2414.22 1801.68 2416.13 1805.54 2418.14C1809.4 2420.15 1812.79 2422.37 1815.69 2424.78C1818.6 2427.14 1820.88 2429.81 1822.53 2432.77C1824.24 2435.74 1825.09 2439.05 1825.09 2442.72C1825.09 2447.3 1824.04 2451.14 1821.93 2454.26C1819.88 2457.38 1816.97 2459.87 1813.21 2461.73C1809.5 2463.54 1805.12 2464.84 1800.06 2465.65C1795.04 2466.45 1789.58 2466.85 1783.67 2466.85Z" fill="#0F4C8A"/>
<path d="M1869.83 2466.48C1867.62 2466.48 1865.97 2465.62 1864.87 2463.91C1863.82 2462.2 1863.21 2459.34 1863.06 2455.32C1863.01 2453.61 1862.99 2451.22 1862.99 2448.15C1863.04 2445.09 1863.09 2441.64 1863.14 2437.82C1863.24 2433.95 1863.34 2429.93 1863.44 2425.76C1863.54 2421.54 1863.64 2417.41 1863.74 2413.39C1863.84 2409.32 1863.92 2405.6 1863.97 2402.23C1864.07 2398.81 1864.12 2395.97 1864.12 2393.71C1864.12 2390.95 1863.67 2389.14 1862.76 2388.28C1861.91 2387.43 1860.01 2387 1857.05 2387C1853.74 2387 1850.46 2387.25 1847.2 2387.76C1843.94 2388.26 1840.71 2388.51 1837.5 2388.51C1836.25 2388.51 1835.1 2388.31 1834.04 2387.91C1833.04 2387.5 1832.27 2386.9 1831.71 2386.1C1831.16 2385.29 1830.89 2384.29 1830.89 2383.08C1830.89 2381.62 1831.71 2380.37 1833.37 2379.31C1835.02 2378.2 1837.35 2377.25 1840.36 2376.45C1843.42 2375.64 1847.05 2375.01 1851.26 2374.56C1855.52 2374.06 1860.23 2373.71 1865.39 2373.5C1870.56 2373.25 1876.05 2373.13 1881.86 2373.13C1885.22 2373.13 1888.5 2373.2 1891.71 2373.35C1894.92 2373.45 1897.92 2373.68 1900.73 2374.03C1903.59 2374.38 1906.07 2374.89 1908.17 2375.54C1910.33 2376.19 1912.01 2377.02 1913.21 2378.03C1914.41 2378.98 1915.01 2380.19 1915.01 2381.65C1915.01 2382.95 1914.69 2384.04 1914.04 2384.89C1913.43 2385.69 1912.53 2386.3 1911.33 2386.7C1910.13 2387.1 1908.7 2387.3 1907.04 2387.3C1904.44 2387.3 1902.13 2387.23 1900.13 2387.08C1898.12 2386.88 1895.79 2386.78 1893.14 2386.78C1889.03 2386.78 1886.04 2387.05 1884.19 2387.6C1882.39 2388.11 1881.23 2389.16 1880.73 2390.77C1880.28 2392.38 1880.03 2394.87 1879.98 2398.24C1879.93 2400.45 1879.85 2402.89 1879.75 2405.55C1879.65 2408.16 1879.53 2410.93 1879.38 2413.84C1879.28 2416.71 1879.13 2419.68 1878.93 2422.74C1878.73 2425.76 1878.53 2428.77 1878.33 2431.79C1878.12 2434.76 1877.92 2437.65 1877.72 2440.46C1877.52 2443.28 1877.32 2445.94 1877.12 2448.45C1876.97 2450.92 1876.82 2453.15 1876.67 2455.17C1876.27 2458.03 1875.82 2460.29 1875.32 2461.95C1874.82 2463.61 1874.14 2464.77 1873.29 2465.42C1872.44 2466.12 1871.28 2466.48 1869.83 2466.48Z" fill="#0F4C8A"/>
<path d="M2005.1 2466.25C2003.44 2466.25 2002.01 2465.72 2000.81 2464.67C1999.66 2463.66 1998.63 2462.2 1997.73 2460.29C1997.28 2458.78 1996.75 2456.98 1996.15 2454.86C1995.6 2452.75 1995.02 2450.62 1994.42 2448.45C1993.87 2446.24 1993.32 2444.18 1992.77 2442.27C1992.22 2440.31 1991.71 2438.75 1991.26 2437.6C1990.66 2435.94 1989.86 2434.73 1988.86 2433.98C1987.9 2433.22 1986.33 2432.72 1984.12 2432.47C1983.07 2432.37 1981.36 2432.24 1979.01 2432.09C1976.7 2431.89 1974.17 2431.72 1971.42 2431.56C1968.71 2431.41 1966.15 2431.34 1963.75 2431.34C1960.09 2431.34 1956.4 2431.41 1952.7 2431.56C1948.99 2431.72 1945.8 2431.92 1943.15 2432.17C1940.84 2432.32 1939.16 2432.75 1938.11 2433.45C1937.11 2434.1 1936.26 2435.28 1935.55 2436.99C1934.95 2438.55 1934.28 2440.49 1933.52 2442.8C1932.82 2445.11 1932.1 2447.55 1931.34 2450.11C1930.64 2452.63 1929.94 2455.06 1929.24 2457.43C1928.34 2459.94 1927.28 2461.78 1926.08 2462.93C1924.93 2464.09 1923.3 2464.67 1921.2 2464.67C1919.74 2464.67 1918.51 2464.39 1917.51 2463.84C1916.51 2463.33 1915.76 2462.5 1915.26 2461.35C1914.81 2460.14 1914.58 2458.58 1914.58 2456.67C1914.58 2454.56 1914.91 2451.9 1915.56 2448.68C1916.21 2445.41 1917.09 2441.84 1918.19 2437.97C1919.34 2434.1 1920.59 2430.13 1921.95 2426.06C1923.35 2421.99 1924.75 2418.07 1926.16 2414.3C1927.56 2410.53 1928.91 2407.11 1930.22 2404.04C1931.52 2400.98 1932.65 2398.54 1933.6 2396.73C1935.3 2393.41 1937.21 2390.24 1939.31 2387.23C1941.47 2384.21 1943.82 2381.57 1946.38 2379.31C1948.99 2377 1951.82 2375.19 1954.88 2373.88C1957.93 2372.52 1961.29 2371.85 1964.95 2371.85C1970.96 2371.85 1976.33 2373.83 1981.04 2377.8C1985.75 2381.77 1989.88 2386.95 1993.44 2393.34C1994.7 2395.4 1996 2398.16 1997.35 2401.63C1998.76 2405.05 2000.16 2408.87 2001.56 2413.09C2002.97 2417.26 2004.27 2421.59 2005.47 2426.06C2006.72 2430.53 2007.85 2434.91 2008.85 2439.18C2009.86 2443.45 2010.63 2447.37 2011.19 2450.94C2011.74 2454.51 2012.01 2457.45 2012.01 2459.77C2012.01 2462.13 2011.39 2463.79 2010.13 2464.74C2008.93 2465.75 2007.25 2466.25 2005.1 2466.25ZM1984.95 2421.99C1986.05 2421.84 1986.78 2421.46 1987.13 2420.86C1987.53 2420.25 1987.73 2419.25 1987.73 2417.84C1987.73 2416.13 1987.43 2414.02 1986.83 2411.51C1986.28 2408.94 1985.47 2406.25 1984.42 2403.44C1983.42 2400.57 1982.24 2397.88 1980.89 2395.37C1978.93 2391.65 1976.65 2388.56 1974.05 2386.1C1971.49 2383.63 1968.71 2382.4 1965.7 2382.4C1962.59 2382.4 1959.59 2383.63 1956.68 2386.1C1953.82 2388.51 1951.24 2391.68 1948.94 2395.6C1947.98 2397.21 1946.98 2399.04 1945.93 2401.1C1944.93 2403.16 1944 2405.27 1943.15 2407.44C1942.3 2409.55 1941.57 2411.56 1940.97 2413.47C1940.42 2415.33 1940.14 2416.91 1940.14 2418.22C1940.14 2419.63 1940.69 2420.61 1941.79 2421.16C1942.95 2421.66 1944.95 2421.91 1947.81 2421.91C1954.32 2421.91 1959.96 2421.94 1964.72 2421.99C1969.49 2422.04 1973.5 2422.09 1976.75 2422.14C1980.06 2422.14 1982.79 2422.09 1984.95 2421.99Z" fill="#0F4C8A"/>
<path d="M2034.25 2466.85C2032.6 2466.85 2031.24 2466.22 2030.19 2464.97C2029.14 2463.71 2028.28 2461.93 2027.63 2459.61C2027.28 2458.36 2026.93 2456.22 2026.58 2453.2C2026.23 2450.19 2025.88 2446.64 2025.53 2442.57C2025.23 2438.5 2024.93 2434.25 2024.63 2429.83C2024.38 2425.36 2024.15 2421.01 2023.95 2416.79C2023.75 2412.56 2023.57 2408.82 2023.42 2405.55C2023.32 2402.28 2023.27 2399.82 2023.27 2398.16C2023.27 2393.18 2023.57 2388.99 2024.18 2385.57C2024.83 2382.1 2026 2379.49 2027.71 2377.73C2029.41 2375.92 2031.87 2375.01 2035.08 2375.01C2037.43 2375.01 2039.91 2376.22 2042.52 2378.63C2045.18 2381.04 2048.36 2384.87 2052.07 2390.09C2055.78 2395.32 2060.46 2402.16 2066.13 2410.6C2073.79 2422.42 2079.86 2431.06 2084.32 2436.54C2088.83 2441.97 2091.99 2444.68 2093.79 2444.68C2094.69 2444.68 2095.45 2444.43 2096.05 2443.93C2096.65 2443.38 2097.1 2442.32 2097.4 2440.76C2097.75 2439.15 2097.95 2436.74 2098 2433.52C2098.05 2432.12 2098.05 2430.01 2098 2427.19C2098 2424.33 2097.95 2421.11 2097.85 2417.54C2097.8 2413.97 2097.73 2410.33 2097.63 2406.61C2097.53 2402.84 2097.43 2399.29 2097.32 2395.97C2097.27 2392.61 2097.22 2389.77 2097.17 2387.45C2097.17 2385.09 2097.22 2383.58 2097.32 2382.93C2097.73 2380.06 2098.43 2378.13 2099.43 2377.12C2100.43 2376.07 2101.89 2375.54 2103.79 2375.54C2105.09 2375.54 2106.2 2375.79 2107.1 2376.29C2108 2376.75 2108.75 2377.48 2109.35 2378.48C2109.96 2379.44 2110.41 2380.72 2110.71 2382.33C2111.06 2383.88 2111.26 2385.74 2111.31 2387.91C2111.41 2389.31 2111.48 2391.5 2111.53 2394.47C2111.63 2397.43 2111.73 2400.88 2111.83 2404.8C2111.93 2408.67 2112.01 2412.71 2112.06 2416.94C2112.11 2421.16 2112.14 2425.26 2112.14 2429.23C2112.19 2433.2 2112.16 2436.79 2112.06 2440.01C2112.01 2443.18 2111.88 2445.61 2111.68 2447.32C2111.28 2451.14 2110.58 2454.36 2109.58 2456.98C2108.58 2459.59 2107.17 2461.55 2105.37 2462.86C2103.56 2464.11 2101.21 2464.74 2098.3 2464.74C2095.55 2464.74 2092.46 2463.16 2089.06 2459.99C2085.65 2456.82 2081.91 2452.45 2077.85 2446.87C2073.79 2441.29 2069.38 2434.96 2064.62 2427.87C2061.61 2423.4 2058.78 2419.2 2056.13 2415.28C2053.52 2411.36 2051.16 2407.94 2049.06 2405.02C2046.95 2402.06 2045.18 2399.74 2043.72 2398.09C2042.32 2396.38 2041.32 2395.52 2040.71 2395.52C2039.66 2395.52 2038.94 2396.18 2038.53 2397.48C2038.18 2398.74 2038.01 2401.3 2038.01 2405.17C2038.01 2407.74 2038.06 2410.63 2038.16 2413.84C2038.31 2417.01 2038.48 2420.3 2038.68 2423.72C2038.89 2427.14 2039.11 2430.58 2039.36 2434.05C2039.61 2437.52 2039.81 2440.86 2039.96 2444.08C2040.16 2447.3 2040.29 2450.26 2040.34 2452.98C2040.44 2455.69 2040.46 2458.06 2040.41 2460.07C2040.01 2462.78 2039.31 2464.59 2038.31 2465.5C2037.36 2466.4 2036 2466.85 2034.25 2466.85Z" fill="#0F4C8A"/>
<path d="M2146.54 2464.59C2143.13 2464.59 2140.32 2464.01 2138.12 2462.86C2135.91 2461.7 2134.16 2459.99 2132.86 2457.73C2131.55 2455.47 2130.58 2452.63 2129.92 2449.21C2129.17 2445.39 2128.62 2440.84 2128.27 2435.56C2127.97 2430.23 2127.82 2424.33 2127.82 2417.84C2127.82 2412.01 2127.97 2406.56 2128.27 2401.48C2128.57 2396.35 2129.12 2391.83 2129.92 2387.91C2130.98 2382.83 2132.68 2378.83 2135.04 2375.92C2137.44 2373 2141.08 2371.54 2145.94 2371.54C2153.96 2371.54 2161.45 2372.5 2168.42 2374.41C2175.43 2376.32 2181.77 2378.88 2187.44 2382.1C2193.1 2385.32 2197.96 2388.94 2202.02 2392.96C2206.13 2396.98 2209.26 2401.15 2211.42 2405.48C2213.62 2409.75 2214.73 2413.92 2214.73 2417.99C2214.73 2422.82 2213.67 2427.52 2211.57 2432.09C2209.46 2436.67 2206.43 2440.91 2202.47 2444.84C2198.51 2448.76 2193.73 2452.2 2188.11 2455.17C2182.55 2458.13 2176.26 2460.44 2169.24 2462.1C2162.28 2463.76 2154.71 2464.59 2146.54 2464.59ZM2152.25 2450.94C2158.52 2450.94 2164.16 2450.26 2169.17 2448.91C2174.23 2447.55 2178.67 2445.74 2182.48 2443.48C2186.33 2441.17 2189.54 2438.55 2192.1 2435.64C2194.7 2432.67 2196.66 2429.6 2197.96 2426.44C2199.27 2423.22 2199.92 2420.08 2199.92 2417.01C2199.92 2414.4 2199.14 2411.63 2197.59 2408.72C2196.03 2405.75 2193.78 2402.86 2190.82 2400.05C2187.91 2397.18 2184.38 2394.62 2180.22 2392.36C2176.11 2390.04 2171.45 2388.21 2166.24 2386.85C2161.07 2385.44 2155.49 2384.74 2149.47 2384.74C2147.92 2384.74 2146.66 2385.47 2145.71 2386.93C2144.76 2388.33 2144.03 2390.29 2143.53 2392.81C2143.08 2395.07 2142.71 2397.71 2142.4 2400.72C2142.15 2403.74 2142.03 2406.91 2142.03 2410.23C2142.03 2417.87 2142.15 2424.38 2142.4 2429.75C2142.71 2435.13 2143.26 2439.48 2144.06 2442.8C2145.46 2448.23 2148.19 2450.94 2152.25 2450.94Z" fill="#0F4C8A"/>
<path d="M2301.29 2468.13C2294.73 2468.13 2289.34 2466.95 2285.13 2464.59C2280.97 2462.23 2277.79 2458.71 2275.58 2454.03C2273.43 2449.31 2272 2443.4 2271.3 2436.31C2271.15 2434.56 2271.02 2432.72 2270.92 2430.81C2270.82 2428.9 2270.74 2426.91 2270.69 2424.85C2270.64 2422.79 2270.59 2420.68 2270.54 2418.52C2270.54 2416.31 2270.54 2414.05 2270.54 2411.73C2270.54 2403.29 2271.32 2396.35 2272.87 2390.92C2274.43 2385.44 2276.88 2381.17 2280.24 2378.1C2283.65 2375.04 2288.06 2372.88 2293.47 2371.62C2298.94 2370.36 2305.53 2369.73 2313.25 2369.73C2317 2369.73 2320.61 2369.89 2324.07 2370.19C2327.53 2370.49 2330.59 2370.94 2333.24 2371.54C2335.95 2372.1 2338.08 2372.8 2339.63 2373.66C2341.19 2374.51 2341.96 2375.52 2341.96 2376.67C2341.96 2377.78 2341.61 2378.63 2340.91 2379.23C2340.26 2379.84 2339.38 2380.22 2338.28 2380.37C2336.73 2380.52 2334.67 2380.49 2332.12 2380.29C2329.56 2380.04 2326.68 2379.81 2323.47 2379.61C2320.26 2379.36 2316.95 2379.23 2313.55 2379.23C2308.33 2379.23 2303.95 2379.61 2300.39 2380.37C2296.83 2381.12 2293.97 2382.4 2291.82 2384.21C2289.71 2385.97 2288.19 2388.41 2287.23 2391.53C2286.28 2394.64 2285.81 2398.51 2285.81 2403.14C2285.81 2405.45 2286.08 2407.16 2286.63 2408.27C2287.23 2409.32 2288.66 2410 2290.92 2410.3C2293.17 2410.6 2296.76 2410.75 2301.67 2410.75C2302.72 2410.75 2304.07 2410.75 2305.73 2410.75C2307.38 2410.75 2309.11 2410.75 2310.92 2410.75C2312.77 2410.7 2314.47 2410.68 2316.03 2410.68C2317.63 2410.63 2318.86 2410.6 2319.71 2410.6C2323.47 2410.6 2326.03 2410.98 2327.38 2411.73C2328.73 2412.49 2329.41 2413.59 2329.41 2415.05C2329.41 2417.16 2328.63 2418.6 2327.08 2419.35C2325.58 2420.1 2323.45 2420.48 2320.69 2420.48C2319.49 2420.48 2318.08 2420.48 2316.48 2420.48C2314.87 2420.48 2313.2 2420.51 2311.44 2420.56C2309.69 2420.56 2307.98 2420.56 2306.33 2420.56C2304.68 2420.56 2303.22 2420.56 2301.97 2420.56C2296.81 2420.56 2293.02 2420.68 2290.62 2420.93C2288.21 2421.18 2286.66 2421.84 2285.96 2422.89C2285.3 2423.9 2284.98 2425.56 2284.98 2427.87C2284.98 2431.74 2285.13 2435.23 2285.43 2438.35C2285.73 2441.42 2286.28 2444.08 2287.08 2446.34C2287.89 2448.61 2289.04 2450.49 2290.54 2452C2292.05 2453.51 2293.97 2454.64 2296.33 2455.39C2298.69 2456.1 2301.57 2456.45 2304.98 2456.45C2309.24 2456.45 2313.4 2456.3 2317.46 2455.99C2321.57 2455.69 2325.25 2455.39 2328.51 2455.09C2331.76 2454.79 2334.27 2454.64 2336.03 2454.64C2337.88 2454.64 2339.21 2454.99 2340.01 2455.69C2340.86 2456.4 2341.29 2457.43 2341.29 2458.78C2341.29 2460.39 2340.06 2461.8 2337.6 2463.01C2335.15 2464.21 2331.92 2465.19 2327.91 2465.95C2323.95 2466.7 2319.61 2467.26 2314.9 2467.61C2310.24 2467.96 2305.7 2468.13 2301.29 2468.13Z" fill="#0F4C8A"/>
<path d="M2391.72 2465.27C2389.57 2465.27 2387.49 2464.34 2385.48 2462.48C2383.53 2460.62 2381.62 2458.31 2379.77 2455.54C2377.96 2452.73 2376.31 2449.86 2374.81 2446.95C2373.55 2444.63 2372.1 2441.62 2370.45 2437.9C2368.79 2434.18 2367.06 2430.08 2365.26 2425.61C2363.51 2421.08 2361.78 2416.48 2360.07 2411.81C2358.37 2407.13 2356.84 2402.69 2355.49 2398.46C2354.13 2394.24 2353.06 2390.55 2352.25 2387.38C2351.45 2384.21 2351.05 2381.9 2351.05 2380.44C2351.05 2378.13 2351.8 2376.37 2353.31 2375.16C2354.81 2373.91 2356.71 2373.28 2359.02 2373.28C2361.07 2373.28 2362.83 2373.83 2364.28 2374.94C2365.79 2375.99 2366.94 2377.75 2367.74 2380.22C2368.79 2384.14 2370.02 2388.58 2371.42 2393.56C2372.88 2398.49 2374.38 2403.54 2375.93 2408.72C2377.49 2413.9 2378.99 2418.82 2380.45 2423.5C2381.95 2428.12 2383.33 2432.04 2384.58 2435.26C2386.23 2439.48 2387.69 2442.82 2388.94 2445.29C2390.19 2447.75 2391.27 2448.98 2392.17 2448.98C2393.18 2448.98 2394.55 2447.8 2396.31 2445.44C2398.11 2443.08 2400.14 2439.93 2402.4 2436.01C2404.35 2432.85 2406.38 2429.18 2408.49 2425C2410.64 2420.78 2412.82 2416.33 2415.03 2411.66C2417.28 2406.93 2419.44 2402.16 2421.49 2397.33C2423.55 2392.46 2425.45 2387.78 2427.21 2383.31C2428.06 2381.2 2428.96 2379.56 2429.91 2378.41C2430.92 2377.25 2432.02 2376.45 2433.22 2375.99C2434.42 2375.54 2435.73 2375.31 2437.13 2375.31C2438.58 2375.31 2439.86 2375.62 2440.97 2376.22C2442.07 2376.82 2442.92 2377.63 2443.52 2378.63C2444.17 2379.64 2444.5 2380.79 2444.5 2382.1C2444.5 2383.71 2443.92 2386.07 2442.77 2389.19C2441.67 2392.3 2440.16 2395.92 2438.26 2400.05C2436.4 2404.17 2434.3 2408.49 2431.94 2413.02C2429.59 2417.54 2427.16 2422.01 2424.65 2426.44C2422.15 2430.81 2419.71 2434.88 2417.36 2438.65C2415.05 2442.37 2413 2445.49 2411.19 2448C2409.09 2450.82 2406.91 2453.56 2404.65 2456.22C2402.4 2458.84 2400.17 2461 2397.96 2462.71C2395.81 2464.41 2393.73 2465.27 2391.72 2465.27Z" fill="#0F4C8A"/>
<path d="M2484.4 2468.13C2477.83 2468.13 2472.44 2466.95 2468.23 2464.59C2464.07 2462.23 2460.89 2458.71 2458.68 2454.03C2456.53 2449.31 2455.1 2443.4 2454.4 2436.31C2454.25 2434.56 2454.12 2432.72 2454.02 2430.81C2453.92 2428.9 2453.85 2426.91 2453.8 2424.85C2453.75 2422.79 2453.7 2420.68 2453.65 2418.52C2453.65 2416.31 2453.65 2414.05 2453.65 2411.73C2453.65 2403.29 2454.42 2396.35 2455.98 2390.92C2457.53 2385.44 2459.99 2381.17 2463.35 2378.1C2466.75 2375.04 2471.16 2372.88 2476.58 2371.62C2482.04 2370.36 2488.63 2369.73 2496.35 2369.73C2500.11 2369.73 2503.72 2369.89 2507.18 2370.19C2510.63 2370.49 2513.69 2370.94 2516.35 2371.54C2519.05 2372.1 2521.18 2372.8 2522.74 2373.66C2524.29 2374.51 2525.07 2375.52 2525.07 2376.67C2525.07 2377.78 2524.72 2378.63 2524.02 2379.23C2523.36 2379.84 2522.49 2380.22 2521.38 2380.37C2519.83 2380.52 2517.78 2380.49 2515.22 2380.29C2512.66 2380.04 2509.78 2379.81 2506.57 2379.61C2503.37 2379.36 2500.06 2379.23 2496.65 2379.23C2491.44 2379.23 2487.05 2379.61 2483.49 2380.37C2479.94 2381.12 2477.08 2382.4 2474.92 2384.21C2472.82 2385.97 2471.29 2388.41 2470.34 2391.53C2469.38 2394.64 2468.91 2398.51 2468.91 2403.14C2468.91 2405.45 2469.18 2407.16 2469.74 2408.27C2470.34 2409.32 2471.77 2410 2474.02 2410.3C2476.28 2410.6 2479.86 2410.75 2484.77 2410.75C2485.82 2410.75 2487.18 2410.75 2488.83 2410.75C2490.49 2410.75 2492.21 2410.75 2494.02 2410.75C2495.87 2410.7 2497.58 2410.68 2499.13 2410.68C2500.73 2410.63 2501.96 2410.6 2502.81 2410.6C2506.57 2410.6 2509.13 2410.98 2510.48 2411.73C2511.84 2412.49 2512.51 2413.59 2512.51 2415.05C2512.51 2417.16 2511.74 2418.6 2510.18 2419.35C2508.68 2420.1 2506.55 2420.48 2503.79 2420.48C2502.59 2420.48 2501.19 2420.48 2499.58 2420.48C2497.98 2420.48 2496.3 2420.51 2494.54 2420.56C2492.79 2420.56 2491.09 2420.56 2489.43 2420.56C2487.78 2420.56 2486.33 2420.56 2485.07 2420.56C2479.91 2420.56 2476.13 2420.68 2473.72 2420.93C2471.31 2421.18 2469.76 2421.84 2469.06 2422.89C2468.41 2423.9 2468.08 2425.56 2468.08 2427.87C2468.08 2431.74 2468.23 2435.23 2468.53 2438.35C2468.83 2441.42 2469.38 2444.08 2470.19 2446.34C2470.99 2448.61 2472.14 2450.49 2473.65 2452C2475.15 2453.51 2477.08 2454.64 2479.43 2455.39C2481.79 2456.1 2484.67 2456.45 2488.08 2456.45C2492.34 2456.45 2496.5 2456.3 2500.56 2455.99C2504.67 2455.69 2508.35 2455.39 2511.61 2455.09C2514.87 2454.79 2517.37 2454.64 2519.13 2454.64C2520.98 2454.64 2522.31 2454.99 2523.11 2455.69C2523.97 2456.4 2524.39 2457.43 2524.39 2458.78C2524.39 2460.39 2523.16 2461.8 2520.71 2463.01C2518.25 2464.21 2515.02 2465.19 2511.01 2465.95C2507.05 2466.7 2502.71 2467.26 2498 2467.61C2493.34 2467.96 2488.81 2468.13 2484.4 2468.13Z" fill="#0F4C8A"/>
<path d="M2546.11 2466.4C2544.05 2466.4 2542.37 2465.6 2541.07 2463.99C2539.82 2462.43 2538.87 2459.99 2538.21 2456.67C2538.01 2455.27 2537.79 2453.41 2537.54 2451.09C2537.34 2448.78 2537.14 2446.24 2536.94 2443.48C2536.79 2440.66 2536.63 2437.8 2536.48 2434.88C2536.38 2431.97 2536.31 2429.13 2536.26 2426.36C2536.21 2423.6 2536.18 2421.16 2536.18 2419.05C2536.18 2412.16 2536.48 2406.03 2537.09 2400.65C2537.74 2395.27 2538.79 2390.6 2540.24 2386.62C2541.75 2382.6 2543.78 2379.31 2546.33 2376.75C2548.89 2374.13 2552.05 2372.2 2555.81 2370.94C2559.61 2369.63 2564.18 2368.98 2569.49 2368.98C2574.65 2368.98 2579.51 2369.53 2584.07 2370.64C2588.68 2371.69 2592.74 2373.33 2596.25 2375.54C2599.76 2377.7 2602.52 2380.44 2604.52 2383.76C2606.53 2387.03 2607.53 2390.85 2607.53 2395.22C2607.53 2399.49 2606.5 2403.11 2604.45 2406.08C2602.39 2408.99 2599.71 2411.38 2596.4 2413.24C2593.15 2415.05 2589.66 2416.46 2585.95 2417.46C2582.24 2418.42 2578.71 2419.12 2575.35 2419.58C2573.55 2419.78 2572.32 2420.03 2571.67 2420.33C2571.07 2420.58 2570.77 2420.96 2570.77 2421.46C2570.77 2421.86 2570.99 2422.37 2571.44 2422.97C2571.94 2423.52 2572.62 2424.23 2573.47 2425.08C2574.38 2425.88 2575.45 2426.89 2576.71 2428.1C2578.01 2429.25 2579.44 2430.63 2580.99 2432.24C2582.65 2433.85 2584.57 2435.76 2586.78 2437.97C2589.04 2440.19 2591.32 2442.5 2593.62 2444.91C2595.93 2447.27 2598.06 2449.54 2600.01 2451.7C2602.02 2453.81 2603.62 2455.62 2604.82 2457.13C2606.08 2458.58 2606.7 2459.54 2606.7 2459.99C2606.7 2461.05 2606.4 2461.93 2605.8 2462.63C2605.2 2463.33 2604.42 2463.86 2603.47 2464.21C2602.57 2464.57 2601.54 2464.74 2600.39 2464.74C2599.03 2464.74 2597.43 2464.24 2595.58 2463.23C2593.77 2462.18 2591.79 2460.77 2589.64 2459.01C2587.48 2457.2 2585.23 2455.12 2582.87 2452.75C2580.51 2450.39 2578.16 2447.88 2575.8 2445.21C2572.04 2441.24 2568.69 2437.8 2565.73 2434.88C2562.82 2431.92 2560.39 2429.63 2558.44 2428.02C2556.53 2426.41 2555.2 2425.61 2554.45 2425.61C2553.9 2425.61 2553.45 2425.86 2553.1 2426.36C2552.8 2426.81 2552.57 2427.64 2552.42 2428.85C2552.32 2430.06 2552.25 2431.72 2552.2 2433.83C2552.2 2435.94 2552.2 2438.65 2552.2 2441.97C2552.2 2442.82 2552.22 2443.96 2552.27 2445.36C2552.32 2446.72 2552.35 2448.18 2552.35 2449.74C2552.4 2451.29 2552.42 2452.8 2552.42 2454.26C2552.47 2455.67 2552.5 2456.92 2552.5 2458.03C2552.5 2459.09 2552.47 2459.79 2552.42 2460.14C2552.17 2462.35 2551.47 2463.94 2550.32 2464.89C2549.22 2465.9 2547.81 2466.4 2546.11 2466.4ZM2560.99 2414.37C2562.9 2414.37 2565.25 2414.2 2568.06 2413.84C2570.92 2413.49 2573.87 2412.89 2576.93 2412.04C2579.99 2411.13 2582.87 2409.95 2585.58 2408.49C2588.28 2406.98 2590.46 2405.12 2592.12 2402.91C2593.82 2400.7 2594.67 2398.09 2594.67 2395.07C2594.67 2391.9 2593.9 2389.24 2592.34 2387.08C2590.84 2384.92 2588.81 2383.18 2586.25 2381.87C2583.75 2380.57 2580.97 2379.61 2577.91 2379.01C2574.85 2378.41 2571.79 2378.1 2568.74 2378.1C2565.53 2378.1 2562.85 2378.56 2560.69 2379.46C2558.54 2380.32 2556.81 2381.67 2555.51 2383.53C2554.25 2385.34 2553.3 2387.73 2552.65 2390.7C2552.35 2392.3 2552.1 2393.94 2551.9 2395.6C2551.7 2397.21 2551.55 2398.79 2551.45 2400.35C2551.4 2401.86 2551.37 2403.31 2551.37 2404.72C2551.37 2407.18 2551.57 2409.12 2551.97 2410.53C2552.37 2411.93 2553.25 2412.94 2554.6 2413.54C2556.01 2414.1 2558.14 2414.37 2560.99 2414.37Z" fill="#0F4C8A"/>
<path d="M2655.26 2464.74C2653.06 2464.74 2651.5 2464.11 2650.6 2462.86C2649.75 2461.6 2649.12 2459.66 2648.72 2457.05C2648.62 2455.99 2648.52 2454.76 2648.42 2453.36C2648.37 2451.9 2648.32 2450.39 2648.27 2448.83C2648.22 2447.22 2648.15 2445.61 2648.05 2444.01C2648 2442.4 2647.95 2440.89 2647.9 2439.48C2647.75 2436.57 2647.42 2434.08 2646.92 2432.02C2646.42 2429.91 2645.11 2428.12 2643.01 2426.66C2640.7 2425.05 2638.42 2423.45 2636.17 2421.84C2633.96 2420.23 2631.98 2418.49 2630.23 2416.63C2628.22 2414.62 2626.39 2412.16 2624.74 2409.25C2623.09 2406.28 2621.66 2403.14 2620.46 2399.82C2619.3 2396.5 2618.4 2393.18 2617.75 2389.87C2617.15 2386.55 2616.85 2383.51 2616.85 2380.74C2616.85 2378.93 2617.15 2377.4 2617.75 2376.14C2618.4 2374.89 2619.28 2373.93 2620.38 2373.28C2621.53 2372.62 2622.86 2372.3 2624.36 2372.3C2625.72 2372.3 2626.92 2373.05 2627.97 2374.56C2629.03 2376.07 2629.95 2378.56 2630.76 2382.02C2631.26 2384.54 2631.93 2387.15 2632.79 2389.87C2633.64 2392.53 2634.64 2395.14 2635.79 2397.71C2637.25 2401.18 2638.97 2404.39 2640.98 2407.36C2642.98 2410.28 2645.21 2412.61 2647.67 2414.37C2650.18 2416.08 2652.86 2416.94 2655.71 2416.94C2658.27 2416.94 2660.8 2416.16 2663.31 2414.6C2665.86 2412.99 2668.29 2410.95 2670.6 2408.49C2673.61 2405.17 2676.29 2401.4 2678.64 2397.18C2681.05 2392.96 2682.83 2389.01 2683.98 2385.34C2685.44 2381.42 2686.71 2378.56 2687.82 2376.75C2688.92 2374.89 2690.15 2373.96 2691.5 2373.96C2692.85 2373.96 2694.03 2374.31 2695.03 2375.01C2696.09 2375.72 2696.89 2376.67 2697.44 2377.88C2698.04 2379.08 2698.34 2380.47 2698.34 2382.02C2698.34 2384.69 2697.89 2387.6 2696.99 2390.77C2696.14 2393.89 2694.93 2397.08 2693.38 2400.35C2691.88 2403.56 2690.1 2406.66 2688.04 2409.62C2685.99 2412.59 2683.81 2415.23 2681.5 2417.54C2679.2 2419.85 2676.84 2421.91 2674.43 2423.72C2672.03 2425.48 2669.92 2426.99 2668.12 2428.25C2666.87 2429.15 2665.91 2430.03 2665.26 2430.89C2664.61 2431.69 2664.11 2432.59 2663.76 2433.6C2663.46 2434.61 2663.18 2435.86 2662.93 2437.37C2662.83 2438.53 2662.71 2439.93 2662.56 2441.59C2662.46 2443.25 2662.33 2445.01 2662.18 2446.87C2662.08 2448.73 2661.95 2450.57 2661.8 2452.38C2661.7 2454.19 2661.55 2455.84 2661.35 2457.35C2661.1 2459.66 2660.45 2461.47 2659.4 2462.78C2658.4 2464.09 2657.02 2464.74 2655.26 2464.74Z" fill="#0F4C8A"/>
<path d="M2795.08 2467.91C2788.22 2467.91 2782.05 2466.88 2776.59 2464.82C2771.18 2462.81 2766.57 2459.89 2762.76 2456.07C2758.95 2452.25 2756.02 2447.65 2753.96 2442.27C2751.96 2436.89 2750.95 2430.86 2750.95 2424.17C2750.95 2416.84 2752.01 2410.1 2754.11 2403.97C2756.27 2397.83 2759.4 2392.53 2763.51 2388.06C2767.62 2383.53 2772.66 2380.04 2778.62 2377.58C2784.58 2375.11 2791.45 2373.88 2799.22 2373.88C2803.33 2373.88 2807.09 2374.31 2810.5 2375.16C2813.9 2376.02 2816.81 2377.12 2819.22 2378.48C2821.67 2379.84 2823.55 2381.3 2824.86 2382.85C2826.21 2384.36 2826.88 2385.85 2826.88 2387.3C2826.88 2388.86 2826.43 2390.02 2825.53 2390.77C2824.68 2391.48 2823.63 2391.83 2822.37 2391.83C2821.22 2391.83 2820.14 2391.48 2819.14 2390.77C2818.14 2390.07 2816.84 2389.29 2815.23 2388.43C2813.63 2387.53 2811.45 2386.72 2808.69 2386.02C2805.93 2385.32 2802.3 2384.97 2797.79 2384.97C2794.08 2384.97 2790.4 2385.74 2786.74 2387.3C2783.13 2388.81 2779.85 2391.1 2776.89 2394.16C2773.98 2397.23 2771.65 2401.03 2769.9 2405.55C2768.14 2410.07 2767.27 2415.33 2767.27 2421.31C2767.27 2425.83 2767.87 2430.18 2769.07 2434.35C2770.27 2438.48 2772.1 2442.15 2774.56 2445.36C2777.07 2448.53 2780.2 2451.07 2783.96 2452.98C2787.72 2454.84 2792.18 2455.77 2797.34 2455.77C2801.35 2455.77 2804.73 2455.24 2807.49 2454.19C2810.25 2453.08 2812.58 2451.82 2814.48 2450.42C2816.43 2449.01 2818.11 2447.78 2819.52 2446.72C2820.92 2445.61 2822.25 2445.06 2823.5 2445.06C2825.56 2445.06 2826.96 2445.54 2827.71 2446.49C2828.46 2447.45 2828.84 2448.81 2828.84 2450.57C2828.84 2452.38 2828.04 2454.31 2826.43 2456.37C2824.88 2458.38 2822.6 2460.27 2819.59 2462.03C2816.64 2463.74 2813.08 2465.14 2808.92 2466.25C2804.81 2467.36 2800.2 2467.91 2795.08 2467.91Z" fill="#0F4C8A"/>
<path d="M2914.21 2464.59C2912.61 2464.59 2911.4 2464.16 2910.6 2463.31C2909.8 2462.45 2909.27 2461 2909.02 2458.94C2908.97 2456.92 2908.95 2454.79 2908.95 2452.53C2908.95 2450.26 2908.95 2448 2908.95 2445.74C2909 2443.43 2909.02 2441.19 2909.02 2439.03C2909.02 2436.87 2909.02 2434.88 2909.02 2433.07C2909.07 2431.21 2909.1 2429.65 2909.1 2428.4C2909.05 2425.73 2908.77 2423.92 2908.27 2422.97C2907.82 2422.01 2907.12 2421.36 2906.17 2421.01C2905.11 2420.61 2902.88 2420.23 2899.47 2419.88C2896.12 2419.53 2890.65 2419.35 2883.09 2419.35C2878.72 2419.35 2875.22 2419.37 2872.56 2419.42C2869.95 2419.42 2867.9 2419.5 2866.4 2419.65C2864.89 2419.75 2863.71 2419.88 2862.86 2420.03C2862.06 2420.18 2861.31 2420.4 2860.61 2420.71C2859.9 2420.96 2859.23 2421.44 2858.58 2422.14C2857.93 2422.84 2857.52 2424.05 2857.37 2425.76C2857.32 2426.61 2857.25 2427.62 2857.15 2428.77C2857.1 2429.88 2857.05 2431.19 2857 2432.7C2856.95 2434.15 2856.9 2435.81 2856.85 2437.67C2856.85 2439.53 2856.82 2441.64 2856.77 2444.01C2856.72 2446.32 2856.67 2448.91 2856.62 2451.77C2856.47 2455.24 2856.12 2457.85 2855.57 2459.61C2855.02 2461.37 2854.27 2462.55 2853.31 2463.16C2852.36 2463.76 2851.18 2464.06 2849.78 2464.06C2847.58 2464.06 2845.97 2462.83 2844.97 2460.37C2843.97 2457.91 2843.24 2454.89 2842.79 2451.32C2842.64 2449.26 2842.46 2446.77 2842.26 2443.86C2842.11 2440.89 2841.99 2437.77 2841.89 2434.51C2841.84 2431.19 2841.76 2428 2841.66 2424.93C2841.61 2421.86 2841.59 2419.2 2841.59 2416.94C2841.59 2413.37 2841.64 2410.02 2841.74 2406.91C2841.84 2403.79 2841.96 2400.88 2842.11 2398.16C2842.26 2395.4 2842.44 2392.86 2842.64 2390.55C2842.84 2388.18 2843.06 2386.05 2843.32 2384.14C2843.82 2380.87 2844.42 2378.18 2845.12 2376.07C2845.87 2373.96 2846.8 2372.4 2847.9 2371.39C2849 2370.39 2850.31 2369.89 2851.81 2369.89C2853.61 2369.89 2854.92 2370.71 2855.72 2372.37C2856.57 2374.03 2857.15 2377.05 2857.45 2381.42C2857.5 2383.08 2857.55 2384.71 2857.6 2386.32C2857.65 2387.93 2857.72 2389.49 2857.82 2391C2857.93 2392.51 2858 2393.89 2858.05 2395.14C2858.1 2396.35 2858.15 2397.43 2858.2 2398.39C2858.3 2399.29 2858.38 2400.02 2858.43 2400.57C2858.68 2402.38 2859 2403.79 2859.4 2404.8C2859.85 2405.8 2860.83 2406.41 2862.34 2406.61C2864.24 2406.86 2867.12 2406.98 2870.98 2406.98C2874.89 2406.98 2879.03 2406.98 2883.39 2406.98C2886.84 2406.98 2890.13 2407.03 2893.23 2407.13C2896.39 2407.23 2899.1 2407.31 2901.35 2407.36C2903.66 2407.36 2905.26 2407.28 2906.17 2407.13C2907.07 2406.88 2907.77 2406.35 2908.27 2405.55C2908.82 2404.75 2909.2 2403.29 2909.4 2401.18C2909.45 2400.22 2909.5 2398.99 2909.55 2397.48C2909.65 2395.97 2909.75 2394.24 2909.85 2392.28C2909.95 2390.27 2910.05 2388.16 2910.15 2385.95C2910.25 2383.68 2910.38 2381.37 2910.53 2379.01C2910.83 2374.84 2911.45 2371.97 2912.41 2370.41C2913.41 2368.8 2914.66 2368 2916.16 2368C2918.07 2368 2919.5 2368.9 2920.45 2370.71C2921.45 2372.47 2922.23 2375.59 2922.78 2380.06C2922.98 2381.22 2923.16 2382.93 2923.31 2385.19C2923.51 2387.4 2923.66 2390.02 2923.76 2393.03C2923.91 2396.05 2924.01 2399.27 2924.06 2402.69C2924.16 2406.1 2924.21 2409.57 2924.21 2413.09C2924.21 2415.86 2924.16 2418.82 2924.06 2421.99C2924.01 2425.1 2923.88 2428.25 2923.68 2431.41C2923.53 2434.53 2923.36 2437.55 2923.16 2440.46C2922.96 2443.38 2922.73 2446.09 2922.48 2448.61C2922.23 2451.07 2921.98 2453.18 2921.73 2454.94C2921.13 2458.56 2920.2 2461.07 2918.95 2462.48C2917.69 2463.89 2916.11 2464.59 2914.21 2464.59Z" fill="#0F4C8A"/>
<path d="M2947.29 2464.06C2944.83 2464.06 2943.03 2463.06 2941.88 2461.05C2940.72 2459.04 2940.15 2456.5 2940.15 2453.43C2940.15 2452.02 2940.15 2449.86 2940.15 2446.95C2940.15 2443.98 2940.17 2440.51 2940.22 2436.54C2940.27 2432.57 2940.32 2428.32 2940.37 2423.8C2940.42 2419.27 2940.5 2414.72 2940.6 2410.15C2940.7 2405.53 2940.82 2401.15 2940.97 2397.03C2941.18 2392.91 2941.38 2389.26 2941.58 2386.1C2942.03 2381.52 2942.75 2378.38 2943.76 2376.67C2944.81 2374.91 2946.54 2374.03 2948.94 2374.03C2951.05 2374.03 2952.53 2374.96 2953.38 2376.82C2954.23 2378.63 2954.78 2381.2 2955.03 2384.51C2955.08 2386.78 2955.13 2389.69 2955.18 2393.26C2955.28 2396.78 2955.33 2400.65 2955.33 2404.87C2955.38 2409.09 2955.41 2413.39 2955.41 2417.77C2955.41 2422.14 2955.41 2426.36 2955.41 2430.43C2955.41 2434.45 2955.38 2438.07 2955.33 2441.29C2955.33 2444.51 2955.31 2447 2955.26 2448.76C2955.21 2452.63 2954.93 2455.69 2954.43 2457.96C2953.93 2460.17 2953.1 2461.75 2951.95 2462.71C2950.85 2463.61 2949.29 2464.06 2947.29 2464.06Z" fill="#0F4C8A"/>
<path d="M2986.65 2465.12C2980.78 2463.76 2976.8 2460.54 2974.69 2455.47C2972.59 2450.39 2971.54 2443.63 2971.54 2435.18C2971.54 2432.62 2971.61 2429.68 2971.76 2426.36C2971.91 2422.99 2972.09 2419.47 2972.29 2415.81C2972.54 2412.14 2972.79 2408.57 2973.04 2405.1C2973.34 2401.58 2973.62 2398.41 2973.87 2395.6C2974.17 2392.73 2974.42 2390.44 2974.62 2388.74C2975.42 2382.45 2976.55 2378.03 2978 2375.46C2979.45 2372.9 2981.46 2371.62 2984.02 2371.62C2985.62 2371.62 2986.8 2372 2987.55 2372.75C2988.35 2373.5 2988.88 2374.59 2989.13 2375.99C2989.38 2377.35 2989.5 2378.98 2989.5 2380.89C2989.5 2382.55 2989.45 2384.51 2989.35 2386.78C2989.25 2388.99 2989.13 2391.43 2988.98 2394.09C2988.88 2396.7 2988.75 2399.44 2988.6 2402.31C2988.45 2405.17 2988.33 2408.04 2988.23 2410.9C2988.13 2413.77 2988.02 2416.56 2987.92 2419.27C2987.87 2421.99 2987.87 2424.55 2987.92 2426.96C2987.97 2431.84 2988.2 2435.86 2988.6 2439.03C2989.05 2442.2 2989.93 2444.68 2991.23 2446.49C2992.59 2448.3 2994.62 2449.59 2997.32 2450.34C3000.08 2451.09 3003.76 2451.47 3008.37 2451.47C3011.73 2451.62 3014.91 2451.7 3017.92 2451.7C3020.98 2451.7 3023.51 2451.7 3025.51 2451.7C3028.82 2451.4 3031.45 2451.19 3033.41 2451.09C3035.36 2450.99 3036.82 2451.07 3037.77 2451.32C3038.52 2451.62 3039.05 2452.05 3039.35 2452.6C3039.7 2453.15 3039.87 2453.96 3039.87 2455.01C3039.87 2456.62 3039.3 2458.01 3038.14 2459.16C3036.99 2460.27 3035.36 2461.22 3033.26 2462.03C3031.15 2462.83 3028.62 2463.56 3025.66 2464.21C3022.46 2464.92 3018.8 2465.47 3014.69 2465.87C3010.58 2466.27 3006.54 2466.48 3002.58 2466.48C3001.03 2466.48 2999.28 2466.43 2997.32 2466.33C2995.37 2466.27 2993.44 2466.15 2991.53 2465.95C2989.63 2465.75 2988 2465.47 2986.65 2465.12Z" fill="#0F4C8A"/>
<path d="M3068.81 2464.59C3065.4 2464.59 3062.6 2464.01 3060.39 2462.86C3058.19 2461.7 3056.43 2459.99 3055.13 2457.73C3053.83 2455.47 3052.85 2452.63 3052.2 2449.21C3051.45 2445.39 3050.89 2440.84 3050.54 2435.56C3050.24 2430.23 3050.09 2424.33 3050.09 2417.84C3050.09 2412.01 3050.24 2406.56 3050.54 2401.48C3050.84 2396.35 3051.4 2391.83 3052.2 2387.91C3053.25 2382.83 3054.95 2378.83 3057.31 2375.92C3059.72 2373 3063.35 2371.54 3068.21 2371.54C3076.23 2371.54 3083.72 2372.5 3090.69 2374.41C3097.71 2376.32 3104.05 2378.88 3109.71 2382.1C3115.37 2385.32 3120.23 2388.94 3124.29 2392.96C3128.4 2396.98 3131.54 2401.15 3133.69 2405.48C3135.9 2409.75 3137 2413.92 3137 2417.99C3137 2422.82 3135.95 2427.52 3133.84 2432.09C3131.74 2436.67 3128.71 2440.91 3124.75 2444.84C3120.79 2448.76 3116 2452.2 3110.39 2455.17C3104.82 2458.13 3098.53 2460.44 3091.52 2462.1C3084.55 2463.76 3076.98 2464.59 3068.81 2464.59ZM3074.53 2450.94C3080.79 2450.94 3086.43 2450.26 3091.44 2448.91C3096.5 2447.55 3100.94 2445.74 3104.75 2443.48C3108.61 2441.17 3111.81 2438.55 3114.37 2435.64C3116.98 2432.67 3118.93 2429.6 3120.23 2426.44C3121.54 2423.22 3122.19 2420.08 3122.19 2417.01C3122.19 2414.4 3121.41 2411.63 3119.86 2408.72C3118.31 2405.75 3116.05 2402.86 3113.09 2400.05C3110.19 2397.18 3106.65 2394.62 3102.49 2392.36C3098.38 2390.04 3093.72 2388.21 3088.51 2386.85C3083.35 2385.44 3077.76 2384.74 3071.74 2384.74C3070.19 2384.74 3068.94 2385.47 3067.98 2386.93C3067.03 2388.33 3066.31 2390.29 3065.8 2392.81C3065.35 2395.07 3064.98 2397.71 3064.68 2400.72C3064.43 2403.74 3064.3 2406.91 3064.3 2410.23C3064.3 2417.87 3064.43 2424.38 3064.68 2429.75C3064.98 2435.13 3065.53 2439.48 3066.33 2442.8C3067.73 2448.23 3070.47 2450.94 3074.53 2450.94Z" fill="#0F4C8A"/>
</svg>
